<svg width="1920" height="4550" viewBox="0 0 1920 4550" fill="none" xmlns="http://www.w3.org/2000/svg">
<g clip-path="url(#clip0_200_271)">
<rect width="1920" height="4550" fill="white"/>
<path d="M172.451 694.121C170.869 694.941 168.902 695.352 166.548 695.352C163.501 695.352 161.06 694.39 159.224 692.466C157.388 690.542 156.47 688.018 156.47 684.893C156.47 681.533 157.5 678.818 159.561 676.748C161.631 674.678 164.243 673.643 167.398 673.643C169.429 673.643 171.114 673.931 172.451 674.507V677.964C171.035 677.124 169.473 676.704 167.764 676.704C165.489 676.704 163.643 677.432 162.227 678.887C160.821 680.342 160.117 682.285 160.117 684.717C160.117 687.031 160.777 688.877 162.095 690.254C163.413 691.621 165.147 692.305 167.295 692.305C169.278 692.305 170.996 691.836 172.451 690.898V694.121ZM182.705 695.352C180.391 695.352 178.54 694.653 177.154 693.257C175.777 691.851 175.088 689.99 175.088 687.676C175.088 685.156 175.806 683.188 177.241 681.772C178.687 680.356 180.63 679.648 183.072 679.648C185.415 679.648 187.241 680.337 188.55 681.714C189.859 683.091 190.513 685 190.513 687.441C190.513 689.834 189.805 691.753 188.389 693.198C186.983 694.634 185.088 695.352 182.705 695.352ZM182.866 682.358C181.538 682.358 180.489 682.822 179.717 683.75C178.946 684.678 178.56 685.957 178.56 687.588C178.56 689.16 178.95 690.4 179.732 691.309C180.513 692.207 181.558 692.656 182.866 692.656C184.204 692.656 185.23 692.212 185.943 691.323C186.665 690.435 187.027 689.17 187.027 687.529C187.027 685.879 186.665 684.604 185.943 683.706C185.23 682.808 184.204 682.358 182.866 682.358ZM207.344 695H203.946V686.548C203.946 683.745 202.954 682.344 200.972 682.344C199.937 682.344 199.082 682.734 198.408 683.516C197.735 684.287 197.398 685.264 197.398 686.445V695H193.985V680H197.398V682.49H197.456C198.579 680.596 200.2 679.648 202.32 679.648C203.95 679.648 205.196 680.181 206.055 681.245C206.914 682.3 207.344 683.828 207.344 685.83V695ZM224.864 695H221.465V686.548C221.465 683.745 220.474 682.344 218.491 682.344C217.456 682.344 216.602 682.734 215.928 683.516C215.254 684.287 214.917 685.264 214.917 686.445V695H211.504V680H214.917V682.49H214.976C216.099 680.596 217.72 679.648 219.839 679.648C221.47 679.648 222.715 680.181 223.574 681.245C224.434 682.3 224.864 683.828 224.864 685.83V695ZM241.724 688.423H231.499C231.538 689.81 231.963 690.879 232.774 691.631C233.594 692.383 234.717 692.759 236.143 692.759C237.744 692.759 239.214 692.28 240.552 691.323V694.062C239.185 694.922 237.378 695.352 235.132 695.352C232.925 695.352 231.192 694.673 229.932 693.315C228.682 691.948 228.057 690.029 228.057 687.559C228.057 685.225 228.745 683.325 230.122 681.86C231.509 680.386 233.228 679.648 235.279 679.648C237.329 679.648 238.916 680.308 240.039 681.626C241.162 682.944 241.724 684.775 241.724 687.119V688.423ZM238.443 686.021C238.433 684.8 238.145 683.853 237.578 683.179C237.012 682.495 236.231 682.153 235.235 682.153C234.258 682.153 233.428 682.51 232.744 683.223C232.071 683.936 231.656 684.868 231.499 686.021H238.443ZM255.699 694.312C254.497 695.005 253.076 695.352 251.436 695.352C249.209 695.352 247.412 694.658 246.045 693.271C244.678 691.875 243.994 690.068 243.994 687.852C243.994 685.381 244.727 683.398 246.192 681.904C247.666 680.4 249.634 679.648 252.095 679.648C253.462 679.648 254.668 679.888 255.713 680.366V683.53C254.668 682.749 253.555 682.358 252.373 682.358C250.938 682.358 249.761 682.847 248.843 683.823C247.925 684.79 247.466 686.06 247.466 687.632C247.466 689.185 247.896 690.41 248.755 691.309C249.624 692.207 250.786 692.656 252.241 692.656C253.462 692.656 254.615 692.222 255.699 691.353V694.312ZM266.992 694.839C266.328 695.171 265.454 695.337 264.37 695.337C261.46 695.337 260.005 693.94 260.005 691.147V682.666H257.5V680H260.005V676.528L263.404 675.562V680H266.992V682.666H263.404V690.166C263.404 691.055 263.565 691.689 263.887 692.07C264.209 692.451 264.746 692.642 265.498 692.642C266.074 692.642 266.573 692.476 266.992 692.144V694.839ZM304.624 673.994L298.867 695H294.927L290.928 680.308C290.762 679.683 290.659 678.999 290.62 678.257H290.562C290.513 678.95 290.396 679.624 290.21 680.278L286.197 695H282.168L276.294 673.994H280.117L283.926 689.375C284.082 690.02 284.18 690.693 284.219 691.396H284.292C284.331 690.898 284.468 690.225 284.702 689.375L289.009 673.994H292.598L296.582 689.492C296.719 690.02 296.822 690.645 296.89 691.367H296.949C296.978 690.879 297.09 690.234 297.285 689.434L301.021 673.994H304.624ZM317.5 695H314.204V692.656H314.146C313.111 694.453 311.592 695.352 309.59 695.352C308.115 695.352 306.958 694.951 306.118 694.15C305.288 693.35 304.873 692.29 304.873 690.972C304.873 688.14 306.504 686.489 309.766 686.021L314.219 685.391C314.219 683.252 313.203 682.183 311.172 682.183C309.385 682.183 307.774 682.798 306.338 684.028V681.055C307.92 680.117 309.746 679.648 311.817 679.648C315.606 679.648 317.5 681.514 317.5 685.244V695ZM314.219 687.632L311.07 688.071C310.093 688.198 309.356 688.438 308.858 688.789C308.369 689.131 308.125 689.736 308.125 690.605C308.125 691.24 308.35 691.763 308.799 692.173C309.258 692.573 309.868 692.773 310.63 692.773C311.665 692.773 312.52 692.412 313.194 691.689C313.877 690.957 314.219 690.039 314.219 688.936V687.632ZM325.074 695H321.66V672.793H325.074V695ZM332.925 695H329.512V672.793H332.925V695ZM350.064 688.423H339.839C339.878 689.81 340.303 690.879 341.114 691.631C341.934 692.383 343.057 692.759 344.483 692.759C346.084 692.759 347.554 692.28 348.892 691.323V694.062C347.525 694.922 345.718 695.352 343.472 695.352C341.265 695.352 339.532 694.673 338.272 693.315C337.022 691.948 336.397 690.029 336.397 687.559C336.397 685.225 337.085 683.325 338.462 681.86C339.849 680.386 341.568 679.648 343.618 679.648C345.669 679.648 347.256 680.308 348.379 681.626C349.502 682.944 350.064 684.775 350.064 687.119V688.423ZM346.782 686.021C346.773 684.8 346.485 683.853 345.918 683.179C345.352 682.495 344.571 682.153 343.574 682.153C342.598 682.153 341.768 682.51 341.084 683.223C340.41 683.936 339.995 684.868 339.839 686.021H346.782ZM361.211 694.839C360.547 695.171 359.673 695.337 358.589 695.337C355.679 695.337 354.224 693.94 354.224 691.147V682.666H351.719V680H354.224V676.528L357.622 675.562V680H361.211V682.666H357.622V690.166C357.622 691.055 357.783 691.689 358.106 692.07C358.428 692.451 358.965 692.642 359.717 692.642C360.293 692.642 360.791 692.476 361.211 692.144V694.839Z" fill="white"/>
<g filter="url(#filter0_f_200_271)">
<circle cx="1771.5" cy="1482.5" r="61.5" fill="#18B2DE"/>
</g>
<g filter="url(#filter1_f_200_271)">
<circle cx="1825.5" cy="2533.5" r="61.5" fill="#18B2DE"/>
</g>
<g filter="url(#filter2_f_200_271)">
<circle cx="28.5" cy="1698.5" r="61.5" fill="#FB37FF"/>
</g>
</g>
<defs>
<filter id="filter0_f_200_271" x="1510" y="1221" width="523" height="523" filterUnits="userSpaceOnUse" color-interpolation-filters="sRGB">
<feFlood flood-opacity="0" result="BackgroundImageFix"/>
<feBlend mode="normal" in="SourceGraphic" in2="BackgroundImageFix" result="shape"/>
<feGaussianBlur stdDeviation="100" result="effect1_foregroundBlur_200_271"/>
</filter>
<filter id="filter1_f_200_271" x="1564" y="2272" width="523" height="523" filterUnits="userSpaceOnUse" color-interpolation-filters="sRGB">
<feFlood flood-opacity="0" result="BackgroundImageFix"/>
<feBlend mode="normal" in="SourceGraphic" in2="BackgroundImageFix" result="shape"/>
<feGaussianBlur stdDeviation="100" result="effect1_foregroundBlur_200_271"/>
</filter>
<filter id="filter2_f_200_271" x="-233" y="1437" width="523" height="523" filterUnits="userSpaceOnUse" color-interpolation-filters="sRGB">
<feFlood flood-opacity="0" result="BackgroundImageFix"/>
<feBlend mode="normal" in="SourceGraphic" in2="BackgroundImageFix" result="shape"/>
<feGaussianBlur stdDeviation="100" result="effect1_foregroundBlur_200_271"/>
</filter>
<clipPath id="clip0_200_271">
<rect width="1920" height="4550" fill="white"/>
</clipPath>
</defs>
</svg>
