<svg width="66" height="66" viewBox="0 0 66 66" fill="none" xmlns="http://www.w3.org/2000/svg">
<g filter="url(#filter0_f_962_1744)">
<circle cx="32.5" cy="32.5" r="14.5" fill="url(#paint0_linear_962_1744)" fill-opacity="0.46"/>
</g>
<path d="M39.4938 35.0669C40.8785 35.0669 42 36.1806 42 37.5556V38.5029H41.9931C41.946 39.5754 41.6497 40.9187 40.4382 42.0159C39.1145 43.2163 36.8285 44 33 44C29.1702 44 26.8855 43.2163 25.5618 42.0159C24.3503 40.9187 24.054 39.574 24.0069 38.5029H24V37.5542C24 36.1806 25.1215 35.0669 26.5062 35.0669H39.4938ZM28.1538 23.3756C27.603 23.3756 27.0747 23.5929 26.6852 23.9796C26.2957 24.3664 26.0769 24.891 26.0769 25.438V30.9379C26.0769 31.4848 26.2957 32.0094 26.6852 32.3962C27.0747 32.783 27.603 33.0003 28.1538 33.0003H37.8462C38.397 33.0003 38.9253 32.783 39.3148 32.3962C39.7043 32.0094 39.9231 31.4848 39.9231 30.9379V25.438C39.9231 24.891 39.7043 24.3664 39.3148 23.9796C38.9253 23.5929 38.397 23.3756 37.8462 23.3756H33.6923V22.6881C33.6962 22.5968 33.681 22.5056 33.6476 22.4205C33.6142 22.3353 33.5633 22.2579 33.4982 22.1933C33.4332 22.1287 33.3553 22.0782 33.2695 22.045C33.1837 22.0118 33.092 21.9967 33 22.0006C32.6178 22.0006 32.3077 22.3168 32.3077 22.6881V23.3756H28.1538ZM28.8462 28.1879C28.8462 27.8233 28.992 27.4735 29.2517 27.2157C29.5114 26.9578 29.8635 26.813 30.2308 26.813C30.598 26.813 30.9502 26.9578 31.2098 27.2157C31.4695 27.4735 31.6154 27.8233 31.6154 28.1879C31.6154 28.5526 31.4695 28.9023 31.2098 29.1602C30.9502 29.418 30.598 29.5629 30.2308 29.5629C29.8635 29.5629 29.5114 29.418 29.2517 29.1602C28.992 28.9023 28.8462 28.5526 28.8462 28.1879ZM34.3846 28.1879C34.3846 27.8233 34.5305 27.4735 34.7902 27.2157C35.0498 26.9578 35.402 26.813 35.7692 26.813C36.1365 26.813 36.4886 26.9578 36.7483 27.2157C37.008 27.4735 37.1538 27.8233 37.1538 28.1879C37.1538 28.5526 37.008 28.9023 36.7483 29.1602C36.4886 29.418 36.1365 29.5629 35.7692 29.5629C35.402 29.5629 35.0498 29.418 34.7902 29.1602C34.5305 28.9023 34.3846 28.5526 34.3846 28.1879Z" fill="url(#paint1_linear_962_1744)"/>
<mask id="path-3-inside-1_962_1744" fill="white">
<path d="M4.7781 36.9628C5.61463 43.252 8.51465 49.0858 13.0235 53.5494C17.5323 58.0131 23.395 60.8543 29.6922 61.6274C35.9895 62.4006 42.3654 61.0621 47.8201 57.8218C53.2748 54.5814 57.4999 49.6225 59.8331 43.7224C62.1662 37.8224 62.4753 31.3149 60.712 25.2203C58.9488 19.1257 55.2128 13.7885 50.0898 10.0456C44.9668 6.30279 38.7466 4.36587 32.4044 4.53858C26.0621 4.71129 19.9565 6.98386 15.0449 11L17.2681 13.7189C21.5778 10.1951 26.9351 8.20101 32.5 8.04946C38.0649 7.89792 43.5228 9.59745 48.0179 12.8816C52.5129 16.1657 55.7911 20.8487 57.3382 26.1964C58.8854 31.5441 58.6141 37.254 56.567 42.4309C54.5198 47.6078 50.8125 51.959 46.0263 54.8022C41.2401 57.6454 35.6457 58.8198 30.1203 58.1414C24.5948 57.463 19.4506 54.9701 15.4944 51.0535C11.5382 47.1369 8.99363 42.0181 8.25962 36.4997L4.7781 36.9628Z"/>
</mask>
<path d="M4.7781 36.9628C5.61463 43.252 8.51465 49.0858 13.0235 53.5494C17.5323 58.0131 23.395 60.8543 29.6922 61.6274C35.9895 62.4006 42.3654 61.0621 47.8201 57.8218C53.2748 54.5814 57.4999 49.6225 59.8331 43.7224C62.1662 37.8224 62.4753 31.3149 60.712 25.2203C58.9488 19.1257 55.2128 13.7885 50.0898 10.0456C44.9668 6.30279 38.7466 4.36587 32.4044 4.53858C26.0621 4.71129 19.9565 6.98386 15.0449 11L17.2681 13.7189C21.5778 10.1951 26.9351 8.20101 32.5 8.04946C38.0649 7.89792 43.5228 9.59745 48.0179 12.8816C52.5129 16.1657 55.7911 20.8487 57.3382 26.1964C58.8854 31.5441 58.6141 37.254 56.567 42.4309C54.5198 47.6078 50.8125 51.959 46.0263 54.8022C41.2401 57.6454 35.6457 58.8198 30.1203 58.1414C24.5948 57.463 19.4506 54.9701 15.4944 51.0535C11.5382 47.1369 8.99363 42.0181 8.25962 36.4997L4.7781 36.9628Z" stroke="#AAEBF3" stroke-opacity="0.32" stroke-width="7.1446" mask="url(#path-3-inside-1_962_1744)"/>
<mask id="path-4-inside-2_962_1744" fill="white">
<path d="M4.77746 36.9564C5.61242 43.2458 8.51098 49.0803 13.0187 53.5451C17.5264 58.0099 23.3883 60.8525 29.6854 61.6273C35.9825 62.402 42.3587 61.0651 47.8142 57.8261C53.2698 54.5872 57.4961 49.6293 59.8307 43.7298C62.1653 37.8304 62.4761 31.323 60.7143 25.2279C58.9526 19.1328 55.2179 13.7948 50.0959 10.0506C44.9739 6.30647 38.7541 4.36799 32.4119 4.53911C26.0696 4.71024 19.9634 6.98128 15.0507 10.9962L17.2733 13.7157C21.5838 10.1929 26.9416 8.20017 32.5066 8.05002C38.0715 7.89988 43.529 9.60077 48.0232 12.886C52.5175 16.1713 55.7944 20.8551 57.3403 26.2032C58.8861 31.5512 58.6134 37.2611 56.565 42.4375C54.5165 47.6139 50.8081 51.9641 46.0212 54.8061C41.2343 57.6481 35.6396 58.8212 30.1143 58.1414C24.589 57.4616 19.4455 54.9674 15.4903 51.0498C11.535 47.1322 8.99172 42.0128 8.2591 36.4942L4.77746 36.9564Z"/>
</mask>
<path d="M4.77746 36.9564C5.61242 43.2458 8.51098 49.0803 13.0187 53.5451C17.5264 58.0099 23.3883 60.8525 29.6854 61.6273C35.9825 62.402 42.3587 61.0651 47.8142 57.8261C53.2698 54.5872 57.4961 49.6293 59.8307 43.7298C62.1653 37.8304 62.4761 31.323 60.7143 25.2279C58.9526 19.1328 55.2179 13.7948 50.0959 10.0506C44.9739 6.30647 38.7541 4.36799 32.4119 4.53911C26.0696 4.71024 19.9634 6.98128 15.0507 10.9962L17.2733 13.7157C21.5838 10.1929 26.9416 8.20017 32.5066 8.05002C38.0715 7.89988 43.529 9.60077 48.0232 12.886C52.5175 16.1713 55.7944 20.8551 57.3403 26.2032C58.8861 31.5512 58.6134 37.2611 56.565 42.4375C54.5165 47.6139 50.8081 51.9641 46.0212 54.8061C41.2343 57.6481 35.6396 58.8212 30.1143 58.1414C24.589 57.4616 19.4455 54.9674 15.4903 51.0498C11.535 47.1322 8.99172 42.0128 8.2591 36.4942L4.77746 36.9564Z" stroke="#9BF4FF" stroke-opacity="0.32" stroke-width="6" stroke-dasharray="7.14 7.14" mask="url(#path-4-inside-2_962_1744)"/>
<defs>
<filter id="filter0_f_962_1744" x="0.426769" y="0.426769" width="64.1465" height="64.1465" filterUnits="userSpaceOnUse" color-interpolation-filters="sRGB">
<feFlood flood-opacity="0" result="BackgroundImageFix"/>
<feBlend mode="normal" in="SourceGraphic" in2="BackgroundImageFix" result="shape"/>
<feGaussianBlur stdDeviation="8.78662" result="effect1_foregroundBlur_962_1744"/>
</filter>
<linearGradient id="paint0_linear_962_1744" x1="22.1429" y1="18" x2="49.0714" y2="49.0714" gradientUnits="userSpaceOnUse">
<stop offset="0.185591" stop-color="#8FF2FF"/>
<stop offset="1" stop-color="#02F6FF"/>
</linearGradient>
<linearGradient id="paint1_linear_962_1744" x1="33" y1="4.08064" x2="33" y2="58.371" gradientUnits="userSpaceOnUse">
<stop stop-color="#258998"/>
<stop offset="0.2104" stop-color="#189EB0"/>
<stop offset="0.5195" stop-color="#00C3DA"/>
<stop offset="0.685757" stop-color="#61D6E7"/>
<stop offset="1" stop-color="#C2EAF5"/>
</linearGradient>
</defs>
</svg>
