<svg width="123" height="117" viewBox="0 0 123 117" fill="none" xmlns="http://www.w3.org/2000/svg">
<g opacity="0.47">
<g clip-path="url(#clip0_957_7954)">
<g style="mix-blend-mode:difference" opacity="0.24">
<path fill-rule="evenodd" clip-rule="evenodd" d="M94.9269 38.227C98.6959 34.6555 98.8559 28.7048 95.2843 24.9358C91.7128 21.1668 85.7621 21.0068 81.9931 24.5784C78.2241 28.15 78.0641 34.1006 81.6357 37.8696C82.4786 38.7592 83.4541 39.4477 84.5022 39.9335C84.9092 42.0949 85.1519 44.0598 85.1171 45.3539C85.0749 46.9241 84.5769 49.265 83.867 51.6703C82.3145 52.1209 80.8579 52.9782 79.6667 54.2373C79.1415 54.7925 78.6972 55.3948 78.3334 56.0298C76.4673 56.3738 74.6 56.5895 72.9883 56.6396C71.0642 56.6995 68.4959 56.5343 65.8988 56.1997C65.4425 55.3766 64.8539 54.6085 64.1337 53.9273C60.3617 50.359 54.4111 50.5241 50.8428 54.2962C47.2745 58.0682 47.4397 64.0188 51.2117 67.5871C54.9838 71.1554 60.9343 70.9902 64.5026 67.2182C64.7447 66.9623 64.9695 66.6965 65.1772 66.422C68.292 65.5027 71.4162 64.8178 73.2409 64.761C74.5321 64.7209 76.3617 64.9583 78.3295 65.3606C78.7772 66.1442 79.3461 66.876 80.0356 67.5282C80.5144 67.9812 81.0283 68.374 81.568 68.7069C82.0849 71.062 82.4097 73.5332 82.4667 75.5881C82.501 76.8223 82.3845 78.1864 82.1624 79.5885C81.3507 79.9935 80.5843 80.5239 79.8917 81.1803C76.1227 84.7518 75.9627 90.7025 79.5342 94.4715C83.1058 98.2405 89.0565 98.4005 92.8255 94.8289C96.5944 91.2573 96.7544 85.3067 93.1829 81.5377C92.5829 80.9046 91.9158 80.3733 91.2032 79.9444C90.8453 78.2182 90.6235 76.609 90.5889 75.3626C90.5431 73.7112 90.9542 71.1806 91.5837 68.6075C92.2077 68.2055 92.7936 67.7226 93.3265 67.1593C93.7862 66.6734 94.184 66.1512 94.5201 65.6027C96.9745 65.1787 99.5631 64.965 101.691 65.0151C102.766 65.0404 104.038 65.1468 105.401 65.3188C105.828 66.3443 106.446 67.3108 107.256 68.1652C110.827 71.9342 116.778 72.0942 120.547 68.5226C124.316 64.9511 124.476 59.0004 120.904 55.2314C117.333 51.4625 111.382 51.3024 107.613 54.874C107.103 55.3577 106.659 55.885 106.281 56.4447C104.529 56.7458 102.97 56.9176 101.882 56.892C100.043 56.8487 97.1452 56.1838 94.3238 55.2853C93.5661 52.1874 93.162 48.4561 93.2395 45.5723C93.2881 43.7675 93.5671 41.4083 94.0013 38.9991C94.3218 38.7647 94.6311 38.5074 94.9269 38.227Z" fill="#404040"/>
</g>
<g style="mix-blend-mode:difference" opacity="0.35">
<path fill-rule="evenodd" clip-rule="evenodd" d="M67.7615 20.5465C67.7615 25.7389 63.5522 29.9482 58.3598 29.9482C57.7209 29.9482 57.0969 29.8845 56.4938 29.7631C54.1889 31.3964 51.9993 33.1841 50.5332 34.6502C49.2493 35.9341 47.8731 37.5928 46.6351 39.3365C46.7897 40.0129 46.8714 40.7171 46.8714 41.4404C46.8714 46.6328 42.6621 50.8421 37.4697 50.8421C36.4003 50.8421 35.3727 50.6636 34.4149 50.3347C32.7576 51.5955 31.2507 52.8762 30.1508 53.9761C28.7005 55.4264 27.1322 57.3552 25.7787 59.3444C25.9107 59.972 25.9801 60.6226 25.9801 61.2895C25.9801 61.8424 25.9324 62.3842 25.8408 62.9109C27.3752 65.8297 29.2654 68.7622 30.7273 70.2144C31.5739 71.0554 32.9972 72.1153 34.6659 73.2042C35.5512 72.928 36.4928 72.7792 37.4691 72.7792C38.242 72.7792 38.9931 72.8725 39.7117 73.0483C42.0174 71.7359 44.1426 70.2931 45.3124 69.1232C46.4076 68.028 47.875 65.9626 49.2964 63.6499C49.0762 62.901 48.9581 62.1084 48.9581 61.2883C48.9581 56.6728 52.6997 52.9312 57.3151 52.9312C61.9306 52.9312 65.6722 56.6728 65.6722 61.2883C65.6722 62.6607 65.3414 63.9559 64.7551 65.0985L65.1605 65.467C64.9213 65.5353 64.6675 65.6206 64.4008 65.7213C62.9539 68.0293 60.4105 69.5799 57.5008 69.6433C55.0216 71.3647 52.626 73.3006 51.0579 74.8687C49.6032 76.3234 48.0298 78.2595 46.6734 80.2552C46.8028 80.8768 46.8708 81.5209 46.8708 82.1809C46.8708 83.128 46.7307 84.0424 46.4702 84.9046C47.5311 86.6123 48.617 88.1063 49.5343 89.0175C51.0542 90.5273 55.7371 94.0519 60.0902 96.9096C60.5488 96.8409 61.0183 96.8052 61.4962 96.8052C66.6886 96.8052 70.8979 101.015 70.8979 106.207C70.8979 111.399 66.6886 115.609 61.4962 115.609C56.3037 115.609 52.0945 111.399 52.0945 106.207C52.0945 105.742 52.1282 105.284 52.1935 104.837C49.2572 100.868 45.6979 96.6595 43.808 94.7821C42.6641 93.6458 41.2241 92.4375 39.6919 91.3183C38.9792 91.4911 38.2349 91.5826 37.4691 91.5826C32.2767 91.5826 28.0674 87.3733 28.0674 82.1809C28.0674 81.375 28.1688 80.5927 28.3595 79.8462C27.1905 78.3455 26.0183 76.9895 25.001 75.979C23.1521 74.1424 20.5301 72.1179 17.9947 70.5852C17.5328 70.655 17.0598 70.6912 16.5784 70.6912C11.386 70.6912 7.1767 66.4819 7.1767 61.2895C7.1767 56.097 11.386 51.8878 16.5784 51.8878C17.3466 51.8878 18.0933 51.9799 18.8081 52.1537C21.1124 50.8418 23.2361 49.3999 24.4054 48.2306C25.4535 47.1824 26.8425 45.2457 28.2059 43.0539C28.1152 42.5297 28.068 41.9906 28.068 41.4404C28.068 36.248 32.2773 32.0387 37.4697 32.0387C38.3355 32.0387 39.174 32.1557 39.9702 32.3748C41.9665 31.1908 43.7517 29.9408 44.7877 28.9047C45.9955 27.6969 47.656 25.309 49.2084 22.7107C49.0447 22.0159 48.9581 21.2913 48.9581 20.5465C48.9581 15.3541 53.1674 11.1448 58.3598 11.1448C63.5522 11.1448 67.7615 15.3541 67.7615 20.5465Z" fill="url(#paint0_linear_957_7954)"/>
</g>
<path fill-rule="evenodd" clip-rule="evenodd" d="M64.5584 20.7329C64.5584 25.9253 60.3491 30.1346 55.1567 30.1346C54.517 30.1346 53.8922 30.0707 53.2884 29.949C50.9845 31.5817 48.7962 33.3685 47.3306 34.834C46.0468 36.1178 44.6705 37.7766 43.4326 39.5203C43.5872 40.1967 43.6689 40.9009 43.6689 41.6242C43.6689 46.8166 39.4596 51.0259 34.2672 51.0259C33.1981 51.0259 32.1707 50.8475 31.2132 50.5188C29.5561 51.7794 28.0493 53.0601 26.9495 54.1598C25.4991 55.6103 23.9306 57.5394 22.5769 59.5289C22.7088 60.1563 22.7782 60.8068 22.7782 61.4734C22.7782 62.0268 22.7304 62.5691 22.6387 63.0962C24.1731 66.0151 26.0634 68.9479 27.5254 70.4001C28.3719 71.241 29.7948 72.3008 31.4632 73.3894C32.3488 73.1131 33.2906 72.9642 34.2672 72.9642C35.0359 72.9642 35.7832 73.0565 36.4983 73.2305C38.8021 71.9188 40.9251 70.4773 42.0941 69.3082C43.192 68.2104 44.6637 66.1377 46.0884 63.8182C45.8713 63.0743 45.7549 62.2874 45.7549 61.4734C45.7549 56.8579 49.4965 53.1163 54.112 53.1163C58.7275 53.1163 62.4691 56.8579 62.4691 61.4734C62.4691 62.8496 62.1364 64.1481 61.5472 65.2929L61.9422 65.652C61.709 65.7186 61.4619 65.8014 61.2025 65.8988C59.7537 68.2152 57.2014 69.7706 54.2818 69.8288C51.8029 71.5501 49.4076 73.4858 47.8396 75.0537C46.3894 76.504 44.8212 78.4326 43.4676 80.4218C43.5995 81.0491 43.6689 81.6994 43.6689 82.3659C43.6689 83.3127 43.5289 84.2269 43.2686 85.0887C44.3293 86.7963 45.4151 88.2902 46.3324 89.2013C47.8524 90.7112 52.5362 94.2365 56.8897 97.0944C57.3475 97.0259 57.8161 96.9904 58.293 96.9904C63.4855 96.9904 67.6947 101.2 67.6947 106.392C67.6947 111.584 63.4855 115.794 58.293 115.794C53.1006 115.794 48.8913 111.584 48.8913 106.392C48.8913 105.926 48.9252 105.468 48.9907 105.02C46.0546 101.051 42.4958 96.8431 40.6061 94.9659C39.4625 93.8299 38.023 92.622 36.4912 91.503C35.7782 91.6759 35.0334 91.7676 34.2672 91.7676C29.0748 91.7676 24.8655 87.5583 24.8655 82.3659C24.8655 81.5602 24.9668 80.7781 25.1575 80.0318C23.9885 78.5311 22.8164 77.1752 21.7991 76.1648C19.9496 74.3276 17.3265 72.3024 14.7904 70.7695C14.3292 70.8391 13.8571 70.8751 13.3765 70.8751C8.18407 70.8751 3.97479 66.6658 3.97479 61.4734C3.97479 56.281 8.18407 52.0717 13.3765 52.0717C14.1448 52.0717 14.8916 52.1639 15.6064 52.3377C17.9109 51.0257 20.0347 49.5837 21.2041 48.4144C22.252 47.3664 23.6406 45.4304 25.0037 43.2392C24.9128 42.7145 24.8655 42.1749 24.8655 41.6242C24.8655 36.4318 29.0748 32.2225 34.2672 32.2225C35.133 32.2225 35.9715 32.3395 36.7676 32.5586C38.7639 31.3746 40.5491 30.1245 41.5852 29.0885C42.7928 27.8809 44.4529 25.4937 46.005 22.896C45.8415 22.2015 45.7549 21.4773 45.7549 20.7329C45.7549 15.5405 49.9642 11.3312 55.1567 11.3312C60.3491 11.3312 64.5584 15.5405 64.5584 20.7329Z" fill="url(#paint1_linear_957_7954)"/>
<path fill-rule="evenodd" clip-rule="evenodd" d="M93.234 25.7996C96.8055 29.5685 96.6455 35.5192 92.8765 39.0908C92.2919 39.6449 91.6547 40.1091 90.982 40.484C90.642 42.5556 90.4263 44.5393 90.3842 46.1056C90.3066 48.9912 90.7112 52.7255 91.4699 55.8246C94.2854 56.7202 97.1751 57.3822 99.0101 57.4254C100.101 57.4511 101.669 57.278 103.428 56.9747C103.805 56.4165 104.249 55.8905 104.758 55.4079C108.527 51.8363 114.478 51.9964 118.049 55.7653C121.621 59.5343 121.461 65.485 117.692 69.0565C113.923 72.6281 107.972 72.4681 104.4 68.6991C103.591 67.8452 102.974 66.8793 102.546 65.8545C101.177 65.6812 99.8986 65.574 98.8188 65.5485C96.7106 65.4989 94.1505 65.7081 91.7166 66.1243C91.3795 66.6758 90.9801 67.2007 90.5181 67.6891C89.985 68.2526 89.3988 68.7356 88.7746 69.1377C88.1451 71.7107 87.734 74.2411 87.7799 75.8925C87.8782 79.4368 89.4902 85.9138 91.442 89.6776L75.9565 90.8464C77.7102 87.4724 79.7888 80.8436 79.6576 76.118C79.6006 74.0629 79.2758 71.5914 78.7588 69.2362C78.2194 68.9034 77.7057 68.5107 77.2271 68.058C76.5374 67.4055 75.9683 66.6734 75.5205 65.8895C73.5527 65.4871 71.7231 65.2497 70.4318 65.2899C68.6089 65.3466 65.4887 66.0303 62.3769 66.9483C62.1674 67.2257 61.9405 67.4944 61.696 67.7528C58.1277 71.5248 52.1771 71.69 48.4051 68.1217C44.633 64.5534 44.4679 58.6029 48.0362 54.8308C51.6045 51.0588 57.555 50.8936 61.3271 54.4619C62.0455 55.1415 62.6331 55.9075 63.0889 56.7285C65.6863 57.0631 68.2549 57.2283 70.1792 57.1685C71.7913 57.1183 73.6591 56.9025 75.5256 56.5584C75.8893 55.9239 76.3334 55.3219 76.8582 54.7671C78.0366 53.5215 79.4747 52.6692 81.0083 52.2148C81.72 49.8056 82.2195 47.4598 82.2618 45.8872C82.2971 44.5726 82.0461 42.5657 81.6273 40.3638C80.8913 39.9286 80.2027 39.3849 79.5853 38.7334C76.0138 34.9644 76.1738 29.0137 79.9428 25.4422C83.7117 21.8706 89.6624 22.0306 93.234 25.7996Z" fill="#99F4FF"/>
<path fill-rule="evenodd" clip-rule="evenodd" d="M76.6197 93.8249C72.8477 90.2566 72.6825 84.306 76.2508 80.534C77.2141 79.5157 78.351 78.7602 79.5718 78.2701C79.658 77.4153 79.696 76.589 79.6745 75.8138C79.6268 74.0955 79.3919 72.0861 79.014 70.0968C78.3793 69.7184 77.7761 69.2648 77.2169 68.7358C76.2787 67.8482 75.5455 66.8251 75.0192 65.7258C73.3515 65.4042 71.8299 65.2184 70.7109 65.2427C68.9172 65.2815 65.8852 65.9093 62.8313 66.7709C62.5624 67.1535 62.2625 67.5214 61.9316 67.8712C58.2405 71.773 52.0853 71.9438 48.1835 68.2528C44.2817 64.5617 44.1108 58.4065 47.8019 54.5047C51.493 50.6029 57.6482 50.432 61.55 54.1231C62.3212 54.8526 62.9466 55.6784 63.4253 56.564C65.979 56.9075 68.4879 57.0873 70.3786 57.0463C71.833 57.0148 73.4923 56.8519 75.1716 56.5826C75.5998 55.7612 76.1476 54.9847 76.8157 54.2785C80.6971 50.1753 87.1699 49.9957 91.273 53.8772C95.3762 57.7586 95.5558 64.2314 91.6743 68.3345C90.7107 69.3532 89.5873 70.1301 88.3801 70.663C87.9913 72.5679 87.7618 74.3324 87.7967 75.5884C87.8241 76.5757 87.969 77.7906 88.2059 79.1111C88.674 79.4162 89.1214 79.7674 89.5417 80.1651C93.3138 83.7334 93.4789 89.6839 89.9106 93.456C86.3423 97.228 80.3918 97.3932 76.6197 93.8249Z" fill="#367D8D"/>
</g>
</g>
<defs>
<linearGradient id="paint0_linear_957_7954" x1="-20.5054" y1="-8.18079" x2="116.343" y2="159.48" gradientUnits="userSpaceOnUse">
<stop offset="0.271541" stop-color="#004655"/>
<stop offset="0.778816" stop-color="#81CADA"/>
</linearGradient>
<linearGradient id="paint1_linear_957_7954" x1="-23.7071" y1="-7.99427" x2="113.14" y2="159.664" gradientUnits="userSpaceOnUse">
<stop offset="0.271541" stop-color="#004655"/>
<stop offset="0.778816" stop-color="#81CADA"/>
</linearGradient>
<clipPath id="clip0_957_7954">
<rect width="123" height="116.788" rx="58.3939" fill="white"/>
</clipPath>
</defs>
</svg>
