<svg width="66" height="66" viewBox="0 0 66 66" fill="none" xmlns="http://www.w3.org/2000/svg">
<g filter="url(#filter0_f_960_5281)">
<circle cx="32.8691" cy="33.0046" r="14.5" fill="url(#paint0_linear_960_5281)" fill-opacity="0.46"/>
</g>
<path d="M24.7025 34.7868H31.2025C31.908 34.7868 32.4844 34.2104 32.4844 33.5049V24.8382C32.4844 24.1327 31.908 23.5563 31.2025 23.5563H24.7025C23.997 23.5563 23.4206 24.1327 23.4206 24.8382V33.5049C23.4206 34.2104 23.997 34.7868 24.7025 34.7868ZM24.7025 43.4535H31.2025C31.908 43.4535 32.4844 42.8771 32.4844 42.1716V37.8382C32.4844 37.1327 31.908 36.5563 31.2025 36.5563H24.7025C23.997 36.5563 23.4206 37.1327 23.4206 37.8382V42.1716C23.4206 42.8771 23.997 43.4535 24.7025 43.4535ZM35.5358 43.4535H42.0358C42.7413 43.4535 43.3177 42.877 43.3177 42.1716V33.5049C43.3177 32.7994 42.7413 32.223 42.0358 32.223H35.5358C34.8303 32.223 34.2539 32.7994 34.2539 33.5049V42.1716C34.2539 42.8771 34.8303 43.4535 35.5358 43.4535ZM34.2539 24.8382V29.1715C34.2539 29.877 34.8303 30.4535 35.5358 30.4535H42.0358C42.7413 30.4535 43.3177 29.877 43.3177 29.1715V24.8382C43.3177 24.1327 42.7413 23.5563 42.0358 23.5563H35.5358C34.8303 23.5563 34.2539 24.1327 34.2539 24.8382Z" fill="url(#paint1_linear_960_5281)" stroke="url(#paint2_linear_960_5281)" stroke-width="0.397135"/>
<mask id="path-3-inside-1_960_5281" fill="white">
<path d="M4.7781 36.9631C5.61463 43.2523 8.51465 49.086 13.0235 53.5497C17.5323 58.0133 23.395 60.8545 29.6922 61.6277C35.9895 62.4009 42.3654 61.0623 47.8201 57.822C53.2748 54.5817 57.4999 49.6227 59.8331 43.7227C62.1662 37.8227 62.4753 31.3152 60.712 25.2205C58.9488 19.1259 55.2128 13.7888 50.0898 10.0459C44.9668 6.30304 38.7466 4.36612 32.4044 4.53882C26.0621 4.71153 19.9565 6.98411 15.0449 11.0002L17.2681 13.7192C21.5778 10.1953 26.9351 8.20125 32.5 8.04971C38.0649 7.89817 43.5228 9.59769 48.0179 12.8818C52.5129 16.166 55.7911 20.849 57.3382 26.1966C58.8854 31.5443 58.6141 37.2542 56.567 42.4311C54.5198 47.608 50.8125 51.9592 46.0263 54.8024C41.2401 57.6456 35.6457 58.8201 30.1203 58.1417C24.5948 57.4633 19.4506 54.9703 15.4944 51.0537C11.5382 47.1371 8.99363 42.0184 8.25962 36.5L4.7781 36.9631Z"/>
</mask>
<path d="M4.7781 36.9631C5.61463 43.2523 8.51465 49.086 13.0235 53.5497C17.5323 58.0133 23.395 60.8545 29.6922 61.6277C35.9895 62.4009 42.3654 61.0623 47.8201 57.822C53.2748 54.5817 57.4999 49.6227 59.8331 43.7227C62.1662 37.8227 62.4753 31.3152 60.712 25.2205C58.9488 19.1259 55.2128 13.7888 50.0898 10.0459C44.9668 6.30304 38.7466 4.36612 32.4044 4.53882C26.0621 4.71153 19.9565 6.98411 15.0449 11.0002L17.2681 13.7192C21.5778 10.1953 26.9351 8.20125 32.5 8.04971C38.0649 7.89817 43.5228 9.59769 48.0179 12.8818C52.5129 16.166 55.7911 20.849 57.3382 26.1966C58.8854 31.5443 58.6141 37.2542 56.567 42.4311C54.5198 47.608 50.8125 51.9592 46.0263 54.8024C41.2401 57.6456 35.6457 58.8201 30.1203 58.1417C24.5948 57.4633 19.4506 54.9703 15.4944 51.0537C11.5382 47.1371 8.99363 42.0184 8.25962 36.5L4.7781 36.9631Z" stroke="#AAEBF3" stroke-opacity="0.32" stroke-width="7.1446" mask="url(#path-3-inside-1_960_5281)"/>
<mask id="path-4-inside-2_960_5281" fill="white">
<path d="M4.77746 36.9562C5.61242 43.2456 8.51098 49.0801 13.0187 53.5449C17.5264 58.0097 23.3883 60.8523 29.6854 61.627C35.9825 62.4018 42.3587 61.0649 47.8142 57.8259C53.2698 54.5869 57.4961 49.629 59.8307 43.7296C62.1653 37.8302 62.4761 31.3227 60.7143 25.2277C58.9526 19.1326 55.2179 13.7945 50.0959 10.0504C44.9739 6.30623 38.7541 4.36775 32.4119 4.53887C26.0696 4.70999 19.9634 6.98104 15.0507 10.9959L17.2733 13.7154C21.5838 10.1926 26.9416 8.19993 32.5066 8.04978C38.0715 7.89963 43.529 9.60052 48.0232 12.8858C52.5175 16.171 55.7944 20.8549 57.3403 26.2029C58.8861 31.551 58.6134 37.2608 56.565 42.4372C54.5165 47.6136 50.8081 51.9639 46.0212 54.8059C41.2343 57.6479 35.6396 58.8209 30.1143 58.1411C24.589 57.4613 19.4455 54.9671 15.4903 51.0495C11.535 47.132 8.99172 42.0126 8.2591 36.494L4.77746 36.9562Z"/>
</mask>
<path d="M4.77746 36.9562C5.61242 43.2456 8.51098 49.0801 13.0187 53.5449C17.5264 58.0097 23.3883 60.8523 29.6854 61.627C35.9825 62.4018 42.3587 61.0649 47.8142 57.8259C53.2698 54.5869 57.4961 49.629 59.8307 43.7296C62.1653 37.8302 62.4761 31.3227 60.7143 25.2277C58.9526 19.1326 55.2179 13.7945 50.0959 10.0504C44.9739 6.30623 38.7541 4.36775 32.4119 4.53887C26.0696 4.70999 19.9634 6.98104 15.0507 10.9959L17.2733 13.7154C21.5838 10.1926 26.9416 8.19993 32.5066 8.04978C38.0715 7.89963 43.529 9.60052 48.0232 12.8858C52.5175 16.171 55.7944 20.8549 57.3403 26.2029C58.8861 31.551 58.6134 37.2608 56.565 42.4372C54.5165 47.6136 50.8081 51.9639 46.0212 54.8059C41.2343 57.6479 35.6396 58.8209 30.1143 58.1411C24.589 57.4613 19.4455 54.9671 15.4903 51.0495C11.535 47.132 8.99172 42.0126 8.2591 36.494L4.77746 36.9562Z" stroke="#9BF4FF" stroke-opacity="0.32" stroke-width="6" stroke-dasharray="7.14 7.14" mask="url(#path-4-inside-2_960_5281)"/>
<defs>
<filter id="filter0_f_960_5281" x="0.79591" y="0.931408" width="64.1465" height="64.1465" filterUnits="userSpaceOnUse" color-interpolation-filters="sRGB">
<feFlood flood-opacity="0" result="BackgroundImageFix"/>
<feBlend mode="normal" in="SourceGraphic" in2="BackgroundImageFix" result="shape"/>
<feGaussianBlur stdDeviation="8.78662" result="effect1_foregroundBlur_960_5281"/>
</filter>
<linearGradient id="paint0_linear_960_5281" x1="22.512" y1="18.5046" x2="49.4406" y2="49.5761" gradientUnits="userSpaceOnUse">
<stop offset="0.185591" stop-color="#8FF2FF"/>
<stop offset="1" stop-color="#02F6FF"/>
</linearGradient>
<linearGradient id="paint1_linear_960_5281" x1="33.3692" y1="7.87182" x2="33.3692" y2="55.9928" gradientUnits="userSpaceOnUse">
<stop stop-color="#258998"/>
<stop offset="0.2104" stop-color="#189EB0"/>
<stop offset="0.5195" stop-color="#00C3DA"/>
<stop offset="0.685757" stop-color="#61D6E7"/>
<stop offset="1" stop-color="#C2EAF5"/>
</linearGradient>
<linearGradient id="paint2_linear_960_5281" x1="33.3692" y1="7.87182" x2="33.3692" y2="55.9928" gradientUnits="userSpaceOnUse">
<stop stop-color="#C2EAF5"/>
<stop offset="0.314243" stop-color="#61D6E7"/>
<stop offset="0.4805" stop-color="#00C3DA"/>
<stop offset="0.7896" stop-color="#189EB0"/>
<stop offset="1" stop-color="#258998"/>
</linearGradient>
</defs>
</svg>
