<svg width="26" height="26" viewBox="0 0 26 26" fill="none" xmlns="http://www.w3.org/2000/svg">
<path fill-rule="evenodd" clip-rule="evenodd" d="M11.796 3.24381C13.653 2.82581 15 4.42181 15 5.99981V19.9998C15 21.5778 13.653 23.1738 11.796 22.7558C7.334 21.7518 4 17.7658 4 12.9998C4 8.23381 7.334 4.24781 11.796 3.24381ZM17.293 9.29281C17.4805 9.10534 17.7348 9.00002 18 9.00002C18.2652 9.00002 18.5195 9.10534 18.707 9.29281L21.707 12.2928C21.8945 12.4803 21.9998 12.7346 21.9998 12.9998C21.9998 13.265 21.8945 13.5193 21.707 13.7068L18.707 16.7068C18.5184 16.889 18.2658 16.9898 18.0036 16.9875C17.7414 16.9852 17.4906 16.88 17.3052 16.6946C17.1198 16.5092 17.0146 16.2584 17.0123 15.9962C17.01 15.734 17.1108 15.4814 17.293 15.2928L18.586 13.9998H10C9.73478 13.9998 9.48043 13.8944 9.29289 13.7069C9.10536 13.5194 9 13.265 9 12.9998C9 12.7346 9.10536 12.4802 9.29289 12.2927C9.48043 12.1052 9.73478 11.9998 10 11.9998H18.586L17.293 10.7068C17.1055 10.5193 17.0002 10.265 17.0002 9.99981C17.0002 9.73464 17.1055 9.48033 17.293 9.29281Z" fill="#375260"/>
</svg>
