<svg width="66" height="66" viewBox="0 0 66 66" fill="none" xmlns="http://www.w3.org/2000/svg">
<g filter="url(#filter0_f_962_5716)">
<circle cx="32.5" cy="32.5" r="14.5" fill="url(#paint0_linear_962_5716)" fill-opacity="0.46"/>
</g>
<path d="M24.9138 41.0526C24.6549 41.0526 24.438 40.9617 24.2632 40.7798C24.0883 40.5979 24.0006 40.373 24 40.1053C23.9994 39.8375 24.0871 39.6126 24.2632 39.4307C24.4392 39.2488 24.6561 39.1579 24.9138 39.1579H25.8276V25.8947C25.8276 25.3737 26.0067 24.9278 26.3649 24.5571C26.7231 24.1863 27.1532 24.0006 27.6551 24H33.1378C33.4881 24 33.7966 24.0868 34.0635 24.2605C34.3303 24.4342 34.5472 24.6632 34.7141 24.9474H36.7929C37.2955 24.9474 37.7259 25.1331 38.0841 25.5044C38.4423 25.8758 38.6211 26.3217 38.6205 26.8421V29.6842C38.6205 29.9526 38.5328 30.1778 38.3573 30.3597C38.1819 30.5416 37.965 30.6322 37.7067 30.6316C37.4484 30.6309 37.2315 30.54 37.0561 30.3587C36.8806 30.1775 36.7929 29.9526 36.7929 29.6842V26.8421H34.9654V30.7263C34.9654 30.9 34.9236 31.0579 34.8402 31.2C34.7567 31.3421 34.6385 31.4526 34.4856 31.5316C33.5109 32.1316 32.7382 32.9409 32.1674 33.9597C31.5966 34.9784 31.3109 36.0796 31.3102 37.2632C31.3102 37.721 31.3599 38.1752 31.4592 38.6255C31.5585 39.0758 31.6916 39.5059 31.8585 39.9158C31.9804 40.1842 31.9691 40.4409 31.8247 40.686C31.6803 40.931 31.4784 41.0533 31.2189 41.0526H24.9138ZM31.3102 33.4737C31.5691 33.4737 31.7863 33.3827 31.9618 33.2008C32.1372 33.0189 32.2246 32.7941 32.224 32.5263C32.2234 32.2585 32.1357 32.0337 31.9609 31.8518C31.786 31.6699 31.5691 31.5789 31.3102 31.5789C31.0513 31.5789 30.8345 31.6699 30.6596 31.8518C30.4848 32.0337 30.3971 32.2585 30.3965 32.5263C30.3959 32.7941 30.4836 33.0193 30.6596 33.2018C30.8357 33.3843 31.0526 33.4749 31.3102 33.4737ZM37.1584 42C37.0366 42 36.9416 41.9646 36.8733 41.8939C36.8051 41.8232 36.7555 41.7322 36.7244 41.621L36.5188 40.5789C36.336 40.5 36.1649 40.4132 36.0052 40.3184C35.8456 40.2237 35.6894 40.1131 35.5365 39.9868L34.577 40.3421C34.4704 40.3737 34.3678 40.3699 34.2691 40.3307C34.1704 40.2916 34.0903 40.2243 34.0287 40.1289L33.4805 39.1579C33.4196 39.0632 33.4007 38.9605 33.4238 38.85C33.447 38.7395 33.4963 38.6447 33.5719 38.5658L34.3257 37.8789C34.2953 37.6421 34.28 37.4409 34.28 37.2755C34.28 37.11 34.2953 36.9085 34.3257 36.671L33.5719 35.9842C33.4957 35.9053 33.4464 35.8105 33.4238 35.7C33.4013 35.5895 33.4202 35.4868 33.4805 35.3921L34.0287 34.421C34.0897 34.3263 34.1698 34.2594 34.2691 34.2202C34.3684 34.181 34.471 34.1769 34.577 34.2079L35.5365 34.5632C35.6888 34.4368 35.845 34.3225 36.0052 34.2202C36.1655 34.1179 36.3366 34.0269 36.5188 33.9474L36.7244 32.9053C36.7549 32.7947 36.8045 32.7038 36.8733 32.6324C36.9422 32.561 37.0372 32.5257 37.1584 32.5263H38.255C38.3768 32.5263 38.4721 32.562 38.541 32.6334C38.6098 32.7047 38.6592 32.7954 38.689 32.9053L38.8946 33.9474C39.0774 34.0263 39.2489 34.1132 39.4091 34.2079C39.5693 34.3026 39.7252 34.4132 39.8769 34.5395L40.8364 34.1842C40.943 34.1526 41.046 34.1567 41.1453 34.1965C41.2446 34.2363 41.3244 34.3033 41.3847 34.3974L41.9329 35.3684C41.9939 35.4632 42.013 35.5658 41.9905 35.6763C41.968 35.7868 41.9183 35.8816 41.8416 35.9605L41.0877 36.6474C41.1182 36.8842 41.1334 37.0857 41.1334 37.2518C41.1334 37.4179 41.1182 37.619 41.0877 37.8553L41.8416 38.5421C41.9177 38.621 41.9674 38.7158 41.9905 38.8263C42.0137 38.9368 41.9945 39.0395 41.9329 39.1342L41.3847 40.1053C41.3238 40.2 41.2476 40.2673 41.1562 40.307C41.0648 40.3468 40.9659 40.3506 40.8592 40.3184L39.8769 39.9868C39.7246 40.1131 39.5687 40.2237 39.4091 40.3184C39.2495 40.4132 39.078 40.5 38.8946 40.5789L38.689 41.621C38.6586 41.7316 38.6092 41.8225 38.541 41.8939C38.4728 41.9653 38.3774 42.0006 38.255 42H37.1584ZM37.7067 39.1579C38.2093 39.1579 38.6397 38.9725 38.9979 38.6018C39.3561 38.231 39.5349 37.7848 39.5343 37.2632C39.5337 36.7415 39.3549 36.2956 38.9979 35.9255C38.6409 35.5554 38.2105 35.3697 37.7067 35.3684C37.2029 35.3672 36.7728 35.5528 36.4164 35.9255C36.0601 36.2981 35.881 36.744 35.8791 37.2632C35.8773 37.7823 36.0564 38.2285 36.4164 38.6018C36.7765 38.975 37.2066 39.1604 37.7067 39.1579Z" fill="url(#paint1_linear_962_5716)"/>
<mask id="path-3-inside-1_962_5716" fill="white">
<path d="M4.7781 36.9628C5.61463 43.252 8.51465 49.0858 13.0235 53.5494C17.5323 58.0131 23.395 60.8543 29.6922 61.6274C35.9895 62.4006 42.3654 61.0621 47.8201 57.8218C53.2748 54.5814 57.4999 49.6225 59.8331 43.7224C62.1662 37.8224 62.4753 31.3149 60.712 25.2203C58.9488 19.1257 55.2128 13.7885 50.0898 10.0456C44.9668 6.30279 38.7466 4.36587 32.4044 4.53858C26.0621 4.71129 19.9565 6.98386 15.0449 11L17.2681 13.7189C21.5778 10.1951 26.9351 8.20101 32.5 8.04946C38.0649 7.89792 43.5228 9.59745 48.0179 12.8816C52.5129 16.1657 55.7911 20.8487 57.3382 26.1964C58.8854 31.5441 58.6141 37.254 56.567 42.4309C54.5198 47.6078 50.8125 51.959 46.0263 54.8022C41.2401 57.6454 35.6457 58.8198 30.1203 58.1414C24.5948 57.463 19.4506 54.9701 15.4944 51.0535C11.5382 47.1369 8.99363 42.0181 8.25962 36.4997L4.7781 36.9628Z"/>
</mask>
<path d="M4.7781 36.9628C5.61463 43.252 8.51465 49.0858 13.0235 53.5494C17.5323 58.0131 23.395 60.8543 29.6922 61.6274C35.9895 62.4006 42.3654 61.0621 47.8201 57.8218C53.2748 54.5814 57.4999 49.6225 59.8331 43.7224C62.1662 37.8224 62.4753 31.3149 60.712 25.2203C58.9488 19.1257 55.2128 13.7885 50.0898 10.0456C44.9668 6.30279 38.7466 4.36587 32.4044 4.53858C26.0621 4.71129 19.9565 6.98386 15.0449 11L17.2681 13.7189C21.5778 10.1951 26.9351 8.20101 32.5 8.04946C38.0649 7.89792 43.5228 9.59745 48.0179 12.8816C52.5129 16.1657 55.7911 20.8487 57.3382 26.1964C58.8854 31.5441 58.6141 37.254 56.567 42.4309C54.5198 47.6078 50.8125 51.959 46.0263 54.8022C41.2401 57.6454 35.6457 58.8198 30.1203 58.1414C24.5948 57.463 19.4506 54.9701 15.4944 51.0535C11.5382 47.1369 8.99363 42.0181 8.25962 36.4997L4.7781 36.9628Z" stroke="#AAEBF3" stroke-opacity="0.32" stroke-width="7.1446" mask="url(#path-3-inside-1_962_5716)"/>
<mask id="path-4-inside-2_962_5716" fill="white">
<path d="M4.77746 36.9555C5.61242 43.2449 8.51098 49.0794 13.0187 53.5441C17.5264 58.0089 23.3883 60.8516 29.6854 61.6263C35.9825 62.4011 42.3587 61.0641 47.8142 57.8252C53.2698 54.5862 57.4961 49.6283 59.8307 43.7289C62.1653 37.8294 62.4761 31.322 60.7143 25.2269C58.9526 19.1319 55.2179 13.7938 50.0959 10.0496C44.9739 6.30549 38.7541 4.36702 32.4119 4.53814C26.0696 4.70926 19.9634 6.9803 15.0507 10.9952L17.2733 13.7147C21.5838 10.1919 26.9416 8.19919 32.5066 8.04905C38.0715 7.8989 43.529 9.59979 48.0232 12.885C52.5175 16.1703 55.7944 20.8541 57.3403 26.2022C58.8861 31.5503 58.6134 37.2601 56.565 42.4365C54.5165 47.6129 50.8081 51.9631 46.0212 54.8051C41.2343 57.6471 35.6396 58.8202 30.1143 58.1404C24.589 57.4606 19.4455 54.9664 15.4903 51.0488C11.535 47.1312 8.99172 42.0118 8.2591 36.4933L4.77746 36.9555Z"/>
</mask>
<path d="M4.77746 36.9555C5.61242 43.2449 8.51098 49.0794 13.0187 53.5441C17.5264 58.0089 23.3883 60.8516 29.6854 61.6263C35.9825 62.4011 42.3587 61.0641 47.8142 57.8252C53.2698 54.5862 57.4961 49.6283 59.8307 43.7289C62.1653 37.8294 62.4761 31.322 60.7143 25.2269C58.9526 19.1319 55.2179 13.7938 50.0959 10.0496C44.9739 6.30549 38.7541 4.36702 32.4119 4.53814C26.0696 4.70926 19.9634 6.9803 15.0507 10.9952L17.2733 13.7147C21.5838 10.1919 26.9416 8.19919 32.5066 8.04905C38.0715 7.8989 43.529 9.59979 48.0232 12.885C52.5175 16.1703 55.7944 20.8541 57.3403 26.2022C58.8861 31.5503 58.6134 37.2601 56.565 42.4365C54.5165 47.6129 50.8081 51.9631 46.0212 54.8051C41.2343 57.6471 35.6396 58.8202 30.1143 58.1404C24.589 57.4606 19.4455 54.9664 15.4903 51.0488C11.535 47.1312 8.99172 42.0118 8.2591 36.4933L4.77746 36.9555Z" stroke="#9BF4FF" stroke-opacity="0.32" stroke-width="6" stroke-dasharray="7.14 7.14" mask="url(#path-4-inside-2_962_5716)"/>
<defs>
<filter id="filter0_f_962_5716" x="0.426769" y="0.426769" width="64.1465" height="64.1465" filterUnits="userSpaceOnUse" color-interpolation-filters="sRGB">
<feFlood flood-opacity="0" result="BackgroundImageFix"/>
<feBlend mode="normal" in="SourceGraphic" in2="BackgroundImageFix" result="shape"/>
<feGaussianBlur stdDeviation="8.78662" result="effect1_foregroundBlur_962_5716"/>
</filter>
<linearGradient id="paint0_linear_962_5716" x1="22.1429" y1="18" x2="49.0714" y2="49.0714" gradientUnits="userSpaceOnUse">
<stop offset="0.185591" stop-color="#8FF2FF"/>
<stop offset="1" stop-color="#02F6FF"/>
</linearGradient>
<linearGradient id="paint1_linear_962_5716" x1="33" y1="9.33871" x2="33" y2="53.7581" gradientUnits="userSpaceOnUse">
<stop stop-color="#258998"/>
<stop offset="0.2104" stop-color="#189EB0"/>
<stop offset="0.5195" stop-color="#00C3DA"/>
<stop offset="0.685757" stop-color="#61D6E7"/>
<stop offset="1" stop-color="#C2EAF5"/>
</linearGradient>
</defs>
</svg>
