<svg width="24" height="26" viewBox="0 0 24 26" fill="none" xmlns="http://www.w3.org/2000/svg">
<g clip-path="url(#clip0_514_10362)">
<path d="M20.9036 19.3575C19.6601 17.2533 17.7437 15.7445 15.5072 15.0292C16.6135 14.3847 17.473 13.4025 17.9537 12.2336C18.4344 11.0647 18.5098 9.77361 18.1683 8.55869C17.8268 7.34376 17.0873 6.27215 16.0633 5.50842C15.0393 4.74468 13.7874 4.33105 12.5 4.33105C11.2126 4.33105 9.96073 4.74468 8.93673 5.50842C7.91273 6.27215 7.17318 7.34376 6.83167 8.55869C6.49016 9.77361 6.56556 11.0647 7.04629 12.2336C7.52702 13.4025 8.38651 14.3847 9.49276 15.0292C7.25631 15.7437 5.33994 17.2525 4.09638 19.3575C4.05078 19.4303 4.02053 19.5112 4.00742 19.5956C3.99431 19.6801 3.99861 19.7662 4.02005 19.8489C4.0415 19.9317 4.07967 20.0094 4.1323 20.0775C4.18493 20.1456 4.25096 20.2026 4.32649 20.2453C4.40203 20.288 4.48554 20.3155 4.57209 20.3261C4.65864 20.3367 4.74649 20.3302 4.83045 20.3071C4.9144 20.2839 4.99277 20.2445 5.06092 20.1912C5.12908 20.1379 5.18563 20.0718 5.22726 19.9968C6.76558 17.3947 9.48459 15.8412 12.5 15.8412C15.5154 15.8412 18.2344 17.3947 19.7727 19.9968C19.8144 20.0718 19.8709 20.1379 19.9391 20.1912C20.0072 20.2445 20.0856 20.2839 20.1695 20.3071C20.2535 20.3302 20.3414 20.3367 20.4279 20.3261C20.5145 20.3155 20.598 20.288 20.6735 20.2453C20.749 20.2026 20.8151 20.1456 20.8677 20.0775C20.9203 20.0094 20.9585 19.9317 20.9799 19.8489C21.0014 19.7662 21.0057 19.6801 20.9926 19.5956C20.9795 19.5112 20.9492 19.4303 20.9036 19.3575ZM7.92749 10.0872C7.92749 9.20207 8.19566 8.33681 8.6981 7.60085C9.20053 6.86489 9.91466 6.29128 10.7502 5.95255C11.5857 5.61383 12.5051 5.5252 13.3921 5.69788C14.279 5.87056 15.0938 6.29679 15.7333 6.92268C16.3727 7.54856 16.8082 8.34598 16.9847 9.21411C17.1611 10.0822 17.0705 10.9821 16.7244 11.7998C16.3784 12.6176 15.7923 13.3165 15.0403 13.8083C14.2884 14.3 13.4044 14.5625 12.5 14.5625C11.2877 14.5612 10.1254 14.0893 9.26818 13.2503C8.41095 12.4113 7.92879 11.2737 7.92749 10.0872Z" fill="#5F5F5F"/>
</g>
<defs>
<clipPath id="clip0_514_10362">
<rect width="18" height="18" fill="white" transform="translate(3 4.33105)"/>
</clipPath>
</defs>
</svg>
