<svg width="20" height="20" viewBox="0 0 20 20" fill="none" xmlns="http://www.w3.org/2000/svg">
<path d="M8.18378 5.19237L12.7965 9.53874C12.861 9.59931 12.9122 9.67128 12.9471 9.75053C12.982 9.82977 13 9.91474 13 10.0005C13 10.0864 12.982 10.1713 12.9471 10.2506C12.9122 10.3298 12.861 10.4018 12.7965 10.4623L8.18378 14.8087C8.0538 14.9312 7.87751 15 7.69368 15C7.50986 15 7.33357 14.9312 7.20358 14.8087C7.0736 14.6862 7.00058 14.5201 7.00058 14.3469C7.00058 14.1737 7.0736 14.0076 7.20358 13.8851L11.3268 10L7.20301 6.11489C7.07302 5.99241 7 5.8263 7 5.65309C7 5.47988 7.07302 5.31376 7.20301 5.19129C7.33299 5.06881 7.50928 5 7.69311 5C7.87693 5 8.05323 5.06881 8.18321 5.19129L8.18378 5.19237Z" fill="#BBC4DA"/>
</svg>
