<svg width="56" height="56" viewBox="0 0 56 56" fill="none" xmlns="http://www.w3.org/2000/svg">
<g clip-path="url(#clip0_945_125)">
<rect width="55.7207" height="55.6908" rx="27.8454" fill="url(#paint0_linear_945_125)"/>
<g style="mix-blend-mode:difference" opacity="0.24">
<path fill-rule="evenodd" clip-rule="evenodd" d="M45.1567 18.185C46.9496 16.486 47.0257 13.6553 45.3267 11.8624C43.6277 10.0695 40.797 9.99339 39.0041 11.6924C37.2112 13.3914 37.1351 16.2221 38.8341 18.015C39.2351 18.4381 39.6991 18.7657 40.1977 18.9968C40.3914 20.025 40.5068 20.9597 40.4903 21.5753C40.4702 22.3222 40.2333 23.4357 39.8956 24.5798C39.1571 24.7942 38.4641 25.202 37.8974 25.801C37.6477 26.065 37.4364 26.3514 37.2633 26.6534C36.3756 26.817 35.4873 26.9196 34.7205 26.9435C33.8052 26.9719 32.5834 26.8934 31.348 26.7342C31.1309 26.3429 30.8511 25.9779 30.5087 25.654C28.7144 23.9566 25.8837 24.0352 24.1863 25.8295C22.4889 27.6239 22.5674 30.4545 24.3618 32.152C26.1561 33.8494 28.9868 33.7708 30.6842 31.9765C30.7997 31.8544 30.9069 31.7276 31.006 31.5966C32.4873 31.1594 33.9729 30.8338 34.8407 30.8068C35.4549 30.7877 36.3251 30.9006 37.2611 31.092C37.4741 31.4649 37.7448 31.8131 38.0729 32.1235C38.3006 32.3389 38.545 32.5257 38.8017 32.684C39.0476 33.8044 39.2021 34.98 39.2292 35.9576C39.2455 36.5445 39.1902 37.1931 39.0846 37.8598C38.6984 38.0525 38.3337 38.3048 38.0041 38.6172C36.2112 40.3162 36.1351 43.1469 37.8341 44.9398C39.5331 46.7327 42.3638 46.8088 44.1567 45.1098C45.9496 43.4108 46.0257 40.5801 44.3267 38.7872C44.0413 38.4861 43.724 38.2334 43.3851 38.0294C43.2149 37.2084 43.1094 36.4431 43.093 35.8504C43.0712 35.0647 43.2667 33.861 43.5662 32.6369C43.863 32.4457 44.1418 32.216 44.3953 31.948C44.6142 31.7166 44.8035 31.4681 44.9634 31.207C46.1307 31.0054 47.3618 30.9038 48.3739 30.9276C48.8855 30.9396 49.4908 30.9903 50.1391 31.0721C50.3425 31.5599 50.6364 32.0196 51.0215 32.426C52.7205 34.2188 55.5512 34.295 57.3441 32.596C59.137 30.897 59.2131 28.0663 57.5141 26.2734C55.8151 24.4805 52.9844 24.4044 51.1915 26.1034C50.9487 26.3335 50.7373 26.5843 50.5576 26.8506C49.7243 26.9939 48.9821 27.0756 48.4649 27.0635C47.5902 27.0429 46.2117 26.7267 44.8697 26.2993C44.5094 24.8257 44.3172 23.0509 44.3541 21.6792C44.3772 20.8206 44.5099 19.6983 44.7165 18.5522C44.8689 18.4407 45.016 18.3183 45.1567 18.185Z" fill="#404040"/>
</g>
<g style="mix-blend-mode:difference" opacity="0.35">
<path fill-rule="evenodd" clip-rule="evenodd" d="M32.2338 9.7751C32.2338 12.2451 30.2314 14.2475 27.7614 14.2475C27.4574 14.2475 27.1604 14.2171 26.8733 14.1593C25.7771 14.9361 24.7358 15.7863 24.0385 16.4836C23.4277 17.0944 22.773 17.8835 22.1841 18.713C22.2576 19.0347 22.2965 19.3696 22.2965 19.7135C22.2965 22.1836 20.2941 24.1859 17.8241 24.1859C17.3157 24.1859 16.827 24.1011 16.3716 23.9448C15.5832 24.5445 14.8664 25.1538 14.3432 25.677C13.6532 26.367 12.907 27.2847 12.2631 28.2311C12.3258 28.5295 12.3588 28.8389 12.3588 29.156C12.3588 29.4191 12.3361 29.677 12.2924 29.9277C13.0224 31.3162 13.9215 32.7112 14.6169 33.402C15.0195 33.8019 15.6962 34.3058 16.4895 34.8236C16.9109 34.692 17.3592 34.6211 17.8239 34.6211C18.1919 34.6211 18.5494 34.6655 18.8915 34.7493C19.9882 34.125 20.9989 33.4388 21.5554 32.8824C22.0763 32.3615 22.7741 31.3792 23.4502 30.2792C23.3453 29.9228 23.2891 29.5455 23.2891 29.1551C23.2891 26.9596 25.0689 25.1797 27.2645 25.1797C29.4601 25.1797 31.2399 26.9596 31.2399 29.1551C31.2399 29.8079 31.0826 30.424 30.8038 30.9674L30.997 31.1431C30.883 31.1757 30.762 31.2164 30.6348 31.2644C29.9466 32.3618 28.7372 33.0991 27.3536 33.1296C26.1742 33.9485 25.0345 34.8695 24.2885 35.6155C23.5964 36.3076 22.8478 37.2287 22.2025 38.1782C22.264 38.4736 22.2963 38.7798 22.2963 39.0935C22.2963 39.5441 22.2296 39.9792 22.1057 40.3894C22.6103 41.2018 23.127 41.9126 23.5634 42.3461C24.2864 43.0643 26.5141 44.741 28.5849 46.1004C28.803 46.0677 29.0263 46.0508 29.2536 46.0508C31.7236 46.0508 33.726 48.0531 33.726 50.5231C33.726 52.9932 31.7236 54.9955 29.2536 54.9955C26.7836 54.9955 24.7812 52.9932 24.7812 50.5231C24.7812 50.3018 24.7973 50.0843 24.8284 49.8716C23.4316 47.9832 21.7384 45.9814 20.8394 45.0883C20.2951 44.5477 19.6099 43.9727 18.8808 43.4402C18.542 43.5223 18.188 43.5658 17.8239 43.5658C15.3539 43.5658 13.3516 41.5635 13.3516 39.0935C13.3516 38.7103 13.3997 38.3384 13.4904 37.9835C12.9343 37.2697 12.3768 36.6248 11.893 36.1442C11.0133 35.2704 9.76575 34.3072 8.5595 33.578C8.33997 33.6111 8.1152 33.6283 7.88643 33.6283C5.41641 33.6283 3.41406 31.626 3.41406 29.156C3.41406 26.6859 5.41641 24.6836 7.88643 24.6836C8.25197 24.6836 8.60727 24.7274 8.94736 24.8102C10.0436 24.1861 11.0538 23.5001 11.6101 22.9439C12.1085 22.4454 12.7691 21.5244 13.4175 20.4821C13.3743 20.2324 13.3517 19.9756 13.3517 19.7135C13.3517 17.2435 15.3541 15.2412 17.8241 15.2412C18.2361 15.2412 18.635 15.2969 19.0138 15.4012C19.9634 14.838 20.8126 14.2433 21.3054 13.7505C21.8799 13.176 22.6697 12.0403 23.4081 10.8044C23.3302 10.4739 23.2891 10.1293 23.2891 9.7751C23.2891 7.30508 25.2914 5.30273 27.7614 5.30273C30.2314 5.30273 32.2338 7.30508 32.2338 9.7751Z" fill="url(#paint1_linear_945_125)"/>
</g>
<path fill-rule="evenodd" clip-rule="evenodd" d="M30.7104 9.86299C30.7104 12.333 28.708 14.3354 26.238 14.3354C25.9339 14.3354 25.6369 14.305 25.3499 14.2472C24.2537 15.024 23.2124 15.8742 22.515 16.5715C21.9043 17.1823 21.2496 17.9714 20.6607 18.8009C20.7342 19.1225 20.773 19.4574 20.773 19.8013C20.773 22.2713 18.7707 24.2736 16.3007 24.2736C15.7923 24.2736 15.3037 24.1888 14.8483 24.0326C14.0599 24.6324 13.343 25.2417 12.8197 25.7649C12.1298 26.4549 11.3837 27.3724 10.7398 28.3188C10.8024 28.617 10.8354 28.9261 10.8354 29.2429C10.8354 29.5063 10.8126 29.7644 10.7689 30.0154C11.4988 31.4039 12.398 32.799 13.0935 33.4899C13.4961 33.8898 14.1727 34.3937 14.9661 34.9114C15.3875 34.7799 15.8357 34.709 16.3005 34.709C16.6665 34.709 17.0222 34.7529 17.3626 34.8359C18.4584 34.212 19.4681 33.5263 20.0241 32.9703C20.5464 32.448 21.2465 31.462 21.9243 30.3585C21.821 30.0046 21.7656 29.6303 21.7656 29.243C21.7656 27.0474 23.5455 25.2676 25.7411 25.2676C27.9366 25.2676 29.7165 27.0474 29.7165 29.243C29.7165 29.8978 29.5582 30.5155 29.2778 31.0602L29.4658 31.231C29.3548 31.2627 29.2372 31.3021 29.1138 31.3485C28.4246 32.4501 27.2107 33.1899 25.8221 33.2176C24.6428 34.0365 23.5032 34.9574 22.7572 35.7034C22.0673 36.3933 21.3212 37.3109 20.6773 38.2573C20.7399 38.5554 20.7729 38.8645 20.7729 39.1813C20.7729 39.632 20.7062 40.0671 20.5822 40.4772C21.0869 41.2897 21.6035 42.0005 22.0399 42.434C22.763 43.1522 24.9907 44.8289 27.0614 46.1883C27.2796 46.1556 27.5029 46.1387 27.7302 46.1387C30.2002 46.1387 32.2025 48.141 32.2025 50.611C32.2025 53.0811 30.2002 55.0834 27.7302 55.0834C25.2602 55.0834 23.2578 53.0811 23.2578 50.611C23.2578 50.3897 23.2739 50.1722 23.3049 49.9595C21.9081 48.0711 20.215 46.0693 19.316 45.1762C18.7717 44.6355 18.0865 44.0606 17.3574 43.5281C17.0185 43.6102 16.6646 43.6537 16.3005 43.6537C13.8305 43.6537 11.8281 41.6514 11.8281 39.1813C11.8281 38.7982 11.8763 38.4263 11.9669 38.0714C11.4109 37.3576 10.8534 36.7127 10.3696 36.2321C9.48956 35.358 8.24142 34.3944 7.03477 33.6651C6.81565 33.6981 6.59132 33.7152 6.36299 33.7152C3.89297 33.7152 1.89062 31.7129 1.89062 29.2429C1.89062 26.7729 3.89297 24.7705 6.36299 24.7705C6.72896 24.7705 7.08467 24.8145 7.42512 24.8974C8.52087 24.2735 9.53058 23.5878 10.0866 23.0318C10.5851 22.5333 11.2457 21.6123 11.8941 20.57C11.8508 20.3202 11.8283 20.0634 11.8283 19.8013C11.8283 17.3313 13.8306 15.3289 16.3007 15.3289C16.7127 15.3289 17.1117 15.3846 17.4906 15.4889C18.4401 14.9258 19.2892 14.3312 19.7819 13.8384C20.3565 13.2639 21.1462 12.1282 21.8846 10.8923C21.8068 10.5618 21.7656 10.2172 21.7656 9.86299C21.7656 7.39297 23.768 5.39062 26.238 5.39062C28.708 5.39062 30.7104 7.39297 30.7104 9.86299Z" fill="url(#paint2_linear_945_125)"/>
<path fill-rule="evenodd" clip-rule="evenodd" d="M44.3501 12.273C46.0491 14.0659 45.9729 16.8967 44.18 18.5956C43.902 18.8591 43.5991 19.0799 43.2792 19.2582C43.1174 20.2438 43.0148 21.1878 42.9947 21.933C42.9578 23.3056 43.1503 25.0818 43.5111 26.5559C44.8504 26.9819 46.2248 27.2968 47.0976 27.3174C47.6168 27.3296 48.3624 27.2472 49.1995 27.1029C49.3789 26.8373 49.5899 26.587 49.8322 26.3574C51.6251 24.6584 54.4558 24.7346 56.1548 26.5274C57.8537 28.3203 57.7776 31.151 55.9847 32.85C54.1919 34.549 51.3611 34.4729 49.6621 32.68C49.2773 32.2739 48.9835 31.8145 48.7802 31.3271C48.1287 31.2446 47.5204 31.1936 47.0067 31.1815C46.0043 31.1579 44.7871 31.2573 43.6298 31.4551C43.4694 31.7176 43.2794 31.9674 43.0595 32.1999C42.8059 32.4679 42.5271 32.6976 42.2303 32.8888C41.9308 34.1129 41.7352 35.3167 41.757 36.1023C41.8038 37.7883 42.5706 40.8694 43.4991 42.6598L36.1327 43.2158C36.9669 41.6108 37.9557 38.4575 37.8933 36.2096C37.8662 35.232 37.7117 34.0563 37.4657 32.9359C37.2091 32.7775 36.9647 32.5907 36.737 32.3753C36.4089 32.0649 36.1381 31.7166 35.9251 31.3437C34.9892 31.1523 34.1189 31.0394 33.5047 31.0585C32.6372 31.0855 31.1522 31.411 29.6713 31.8479C29.572 31.9794 29.4644 32.1067 29.3485 32.2292C27.6511 34.0235 24.8204 34.1021 23.0261 32.4046C21.2317 30.7072 21.1532 27.8766 22.8506 26.0822C24.548 24.2878 27.3787 24.2093 29.173 25.9067C29.5151 26.2303 29.7948 26.595 30.0117 26.9859C31.2473 27.1451 32.4692 27.2237 33.3846 27.1952C34.1514 27.1714 35.0398 27.0687 35.9276 26.9051C36.1006 26.6032 36.3119 26.3168 36.5615 26.0529C37.1218 25.4607 37.8055 25.0553 38.5347 24.8391C38.8732 23.6931 39.1108 22.5772 39.1309 21.8291C39.1477 21.2037 39.0283 20.2489 38.8291 19.2013C38.4788 18.9943 38.1512 18.7356 37.8575 18.4256C36.1585 16.6327 36.2346 13.802 38.0275 12.103C39.8204 10.404 42.6511 10.4802 44.3501 12.273Z" fill="#99F4FF"/>
<path fill-rule="evenodd" clip-rule="evenodd" d="M36.4477 44.6326C34.6534 42.9351 34.5748 40.1045 36.2722 38.3101C36.7305 37.8257 37.2714 37.4663 37.8522 37.2332C37.8932 36.8268 37.9112 36.4339 37.901 36.0654C37.8783 35.2477 37.7665 34.2914 37.5866 33.3448C37.2849 33.1648 36.9983 32.9492 36.7325 32.6978C36.2863 32.2757 35.9376 31.7891 35.6873 31.2664C34.8936 31.1133 34.1696 31.0249 33.6372 31.0364C32.7842 31.0549 31.3424 31.3534 29.8901 31.763C29.762 31.9455 29.6191 32.1209 29.4613 32.2876C27.7055 34.1437 24.7775 34.225 22.9214 32.4691C21.0653 30.7133 20.9841 27.7853 22.7399 25.9292C24.4957 24.0731 27.4237 23.9919 29.2798 25.7477C29.6464 26.0945 29.9438 26.487 30.1714 26.908C31.3862 27.0714 32.5797 27.157 33.4791 27.1375C34.171 27.1225 34.9604 27.0449 35.7593 26.9168C35.963 26.526 36.2237 26.1565 36.5416 25.8204C38.388 23.8686 41.4671 23.7831 43.4189 25.6296C45.3708 27.476 45.4562 30.5551 43.6098 32.5069C43.1513 32.9916 42.6167 33.3612 42.0423 33.6147C41.8573 34.5211 41.7481 35.3605 41.7647 35.9581C41.7777 36.4276 41.8466 37.0054 41.9593 37.6333C42.1819 37.7784 42.3947 37.9455 42.5947 38.1347C44.389 39.8321 44.4676 42.6627 42.7702 44.4571C41.0727 46.2514 38.2421 46.33 36.4477 44.6326Z" fill="#367D8D"/>
</g>
<defs>
<linearGradient id="paint0_linear_945_125" x1="27.8604" y1="0.166879" x2="27.8604" y2="58.6188" gradientUnits="userSpaceOnUse">
<stop stop-color="#258998"/>
<stop offset="0.2104" stop-color="#189EB0"/>
<stop offset="0.5195" stop-color="#00C3DA"/>
<stop offset="0.7632" stop-color="#61D6E7"/>
<stop offset="1" stop-color="#C2EAF5"/>
</linearGradient>
<linearGradient id="paint1_linear_945_125" x1="-9.75423" y1="-3.89043" x2="55.3436" y2="75.865" gradientUnits="userSpaceOnUse">
<stop offset="0.271541" stop-color="#004655"/>
<stop offset="0.778816" stop-color="#81CADA"/>
</linearGradient>
<linearGradient id="paint2_linear_945_125" x1="-11.2777" y1="-3.80254" x2="53.8202" y2="75.9529" gradientUnits="userSpaceOnUse">
<stop offset="0.271541" stop-color="#004655"/>
<stop offset="0.778816" stop-color="#81CADA"/>
</linearGradient>
<clipPath id="clip0_945_125">
<rect width="55.7207" height="55.6908" rx="27.8454" fill="white"/>
</clipPath>
</defs>
</svg>
