<svg width="66" height="66" viewBox="0 0 66 66" fill="none" xmlns="http://www.w3.org/2000/svg">
<g filter="url(#filter0_f_991_2102)">
<circle cx="32.8691" cy="33.0046" r="14.5" fill="url(#paint0_linear_991_2102)" fill-opacity="0.46"/>
</g>
<path fill-rule="evenodd" clip-rule="evenodd" d="M24 34C24 29.7574 24 27.6361 25.3176 26.3176C26.637 25 28.7574 25 33 25C37.2426 25 39.3639 25 40.6815 26.3176C42 27.637 42 29.7574 42 34C42 38.2426 42 40.3639 40.6815 41.6815C39.3648 43 37.2426 43 33 43C28.7574 43 26.6361 43 25.3176 41.6815C24 40.3648 24 38.2426 24 34ZM37.5 35.125C37.6374 35.125 37.7715 35.167 37.8844 35.2453C37.9973 35.3235 38.0836 35.4344 38.1318 35.563C38.1801 35.6917 38.1879 35.832 38.1543 35.9652C38.1207 36.0984 38.0472 36.2182 37.9437 36.3085L34.8504 39.0085C34.7155 39.1263 34.5394 39.1857 34.3607 39.1736C34.1821 39.1616 34.0155 39.079 33.8977 38.9441C33.78 38.8093 33.7206 38.6332 33.7326 38.4545C33.7447 38.2758 33.8272 38.1093 33.9621 37.9915L35.7 36.475H28.5C28.321 36.475 28.1493 36.4039 28.0227 36.2773C27.8961 36.1507 27.825 35.979 27.825 35.8C27.825 35.621 27.8961 35.4493 28.0227 35.3227C28.1493 35.1961 28.321 35.125 28.5 35.125H37.5ZM32.1027 29.0563C32.2203 29.1912 32.2796 29.3673 32.2675 29.5458C32.2553 29.7244 32.1727 29.8908 32.0379 30.0085L30.3 31.525H37.5C37.679 31.525 37.8507 31.5961 37.9773 31.7227C38.1039 31.8493 38.175 32.021 38.175 32.2C38.175 32.379 38.1039 32.5507 37.9773 32.6773C37.8507 32.8039 37.679 32.875 37.5 32.875H28.5C28.3626 32.875 28.2285 32.833 28.1156 32.7547C28.0027 32.6765 27.9164 32.5656 27.8682 32.437C27.8199 32.3083 27.8121 32.168 27.8457 32.0348C27.8793 31.9016 27.9528 31.7818 28.0563 31.6915L31.1496 28.9915C31.2164 28.9331 31.2941 28.8885 31.3781 28.8601C31.4622 28.8318 31.5511 28.8203 31.6396 28.8263C31.7281 28.8323 31.8146 28.8557 31.894 28.8952C31.9735 28.9347 32.0444 28.9894 32.1027 29.0563Z" fill="url(#paint1_linear_991_2102)" stroke="url(#paint2_linear_991_2102)" stroke-width="0.4"/>
<mask id="path-3-inside-1_991_2102" fill="white">
<path d="M4.7781 36.963C5.61463 43.2522 8.51465 49.086 13.0235 53.5496C17.5323 58.0133 23.395 60.8544 29.6922 61.6276C35.9895 62.4008 42.3654 61.0623 47.8201 57.8219C53.2748 54.5816 57.4999 49.6226 59.8331 43.7226C62.1662 37.8226 62.4753 31.3151 60.712 25.2205C58.9488 19.1258 55.2128 13.7887 50.0898 10.0458C44.9668 6.30297 38.7466 4.36605 32.4044 4.53876C26.0621 4.71147 19.9565 6.98405 15.0449 11.0002L17.2681 13.7191C21.5778 10.1952 26.9351 8.20119 32.5 8.04965C38.0649 7.89811 43.5228 9.59763 48.0179 12.8818C52.5129 16.1659 55.7911 20.8489 57.3382 26.1966C58.8854 31.5442 58.6141 37.2542 56.567 42.4311C54.5198 47.608 50.8125 51.9592 46.0263 54.8024C41.2401 57.6456 35.6457 58.82 30.1203 58.1416C24.5948 57.4632 19.4506 54.9703 15.4944 51.0537C11.5382 47.1371 8.99363 42.0183 8.25962 36.4999L4.7781 36.963Z"/>
</mask>
<path d="M4.7781 36.963C5.61463 43.2522 8.51465 49.086 13.0235 53.5496C17.5323 58.0133 23.395 60.8544 29.6922 61.6276C35.9895 62.4008 42.3654 61.0623 47.8201 57.8219C53.2748 54.5816 57.4999 49.6226 59.8331 43.7226C62.1662 37.8226 62.4753 31.3151 60.712 25.2205C58.9488 19.1258 55.2128 13.7887 50.0898 10.0458C44.9668 6.30297 38.7466 4.36605 32.4044 4.53876C26.0621 4.71147 19.9565 6.98405 15.0449 11.0002L17.2681 13.7191C21.5778 10.1952 26.9351 8.20119 32.5 8.04965C38.0649 7.89811 43.5228 9.59763 48.0179 12.8818C52.5129 16.1659 55.7911 20.8489 57.3382 26.1966C58.8854 31.5442 58.6141 37.2542 56.567 42.4311C54.5198 47.608 50.8125 51.9592 46.0263 54.8024C41.2401 57.6456 35.6457 58.82 30.1203 58.1416C24.5948 57.4632 19.4506 54.9703 15.4944 51.0537C11.5382 47.1371 8.99363 42.0183 8.25962 36.4999L4.7781 36.963Z" stroke="#AAEBF3" stroke-opacity="0.32" stroke-width="7.1446" mask="url(#path-3-inside-1_991_2102)"/>
<mask id="path-4-inside-2_991_2102" fill="white">
<path d="M4.77746 36.9561C5.61242 43.2455 8.51098 49.08 13.0187 53.5448C17.5264 58.0096 23.3883 60.8522 29.6854 61.627C35.9825 62.4017 42.3587 61.0648 47.8142 57.8258C53.2698 54.5869 57.4961 49.629 59.8307 43.7295C62.1653 37.8301 62.4761 31.3227 60.7143 25.2276C58.9526 19.1325 55.2179 13.7944 50.0959 10.0503C44.9739 6.30617 38.7541 4.36769 32.4119 4.53881C26.0696 4.70993 19.9634 6.98098 15.0507 10.9959L17.2733 13.7154C21.5838 10.1926 26.9416 8.19987 32.5066 8.04972C38.0715 7.89957 43.529 9.60046 48.0232 12.8857C52.5175 16.171 55.7944 20.8548 57.3403 26.2029C58.8861 31.5509 58.6134 37.2608 56.565 42.4372C54.5165 47.6136 50.8081 51.9638 46.0212 54.8058C41.2343 57.6478 35.6396 58.8209 30.1143 58.1411C24.589 57.4613 19.4455 54.9671 15.4903 51.0495C11.535 47.1319 8.99172 42.0125 8.2591 36.4939L4.77746 36.9561Z"/>
</mask>
<path d="M4.77746 36.9561C5.61242 43.2455 8.51098 49.08 13.0187 53.5448C17.5264 58.0096 23.3883 60.8522 29.6854 61.627C35.9825 62.4017 42.3587 61.0648 47.8142 57.8258C53.2698 54.5869 57.4961 49.629 59.8307 43.7295C62.1653 37.8301 62.4761 31.3227 60.7143 25.2276C58.9526 19.1325 55.2179 13.7944 50.0959 10.0503C44.9739 6.30617 38.7541 4.36769 32.4119 4.53881C26.0696 4.70993 19.9634 6.98098 15.0507 10.9959L17.2733 13.7154C21.5838 10.1926 26.9416 8.19987 32.5066 8.04972C38.0715 7.89957 43.529 9.60046 48.0232 12.8857C52.5175 16.171 55.7944 20.8548 57.3403 26.2029C58.8861 31.5509 58.6134 37.2608 56.565 42.4372C54.5165 47.6136 50.8081 51.9638 46.0212 54.8058C41.2343 57.6478 35.6396 58.8209 30.1143 58.1411C24.589 57.4613 19.4455 54.9671 15.4903 51.0495C11.535 47.1319 8.99172 42.0125 8.2591 36.4939L4.77746 36.9561Z" stroke="#9BF4FF" stroke-opacity="0.32" stroke-width="6" stroke-dasharray="7.14 7.14" mask="url(#path-4-inside-2_991_2102)"/>
<defs>
<filter id="filter0_f_991_2102" x="0.79591" y="0.931347" width="64.1465" height="64.1465" filterUnits="userSpaceOnUse" color-interpolation-filters="sRGB">
<feFlood flood-opacity="0" result="BackgroundImageFix"/>
<feBlend mode="normal" in="SourceGraphic" in2="BackgroundImageFix" result="shape"/>
<feGaussianBlur stdDeviation="8.78662" result="effect1_foregroundBlur_991_2102"/>
</filter>
<linearGradient id="paint0_linear_991_2102" x1="22.512" y1="18.5046" x2="49.4406" y2="49.576" gradientUnits="userSpaceOnUse">
<stop offset="0.185591" stop-color="#8FF2FF"/>
<stop offset="1" stop-color="#02F6FF"/>
</linearGradient>
<linearGradient id="paint1_linear_991_2102" x1="33" y1="10.3387" x2="33" y2="54.7581" gradientUnits="userSpaceOnUse">
<stop stop-color="#258998"/>
<stop offset="0.2104" stop-color="#189EB0"/>
<stop offset="0.5195" stop-color="#00C3DA"/>
<stop offset="0.685757" stop-color="#61D6E7"/>
<stop offset="1" stop-color="#C2EAF5"/>
</linearGradient>
<linearGradient id="paint2_linear_991_2102" x1="33" y1="10.3387" x2="33" y2="54.7581" gradientUnits="userSpaceOnUse">
<stop stop-color="#C2EAF5"/>
<stop offset="0.314243" stop-color="#61D6E7"/>
<stop offset="0.4805" stop-color="#00C3DA"/>
<stop offset="0.7896" stop-color="#189EB0"/>
<stop offset="1" stop-color="#258998"/>
</linearGradient>
</defs>
</svg>
