<svg width="66" height="66" viewBox="0 0 66 66" fill="none" xmlns="http://www.w3.org/2000/svg">
<g filter="url(#filter0_f_954_5119)">
<circle cx="32.8691" cy="33.0044" r="14.5" fill="url(#paint0_linear_954_5119)" fill-opacity="0.46"/>
</g>
<g clip-path="url(#clip0_954_5119)">
<path d="M29.3333 39.2778H29.8333V38.7778V31.3889V30.8889H29.3333H27.2222H26.7222V31.3889V38.7778V39.2778H27.2222H29.3333ZM33.5556 39.2778H34.0556V38.7778V28.2222V27.7222H33.5556H31.4444H30.9444V28.2222V38.7778V39.2778H31.4444H33.5556ZM37.7778 39.2778H38.2778V38.7778V34.5556V34.0556H37.7778H35.6667H35.1667V34.5556V38.7778V39.2778H35.6667H37.7778ZM25.1111 24.5H39.8889C40.7739 24.5 41.5 25.2261 41.5 26.1111V40.8889C41.5 41.7739 40.7739 42.5 39.8889 42.5H25.1111C24.2261 42.5 23.5 41.7739 23.5 40.8889V26.1111C23.5 25.2261 24.2261 24.5 25.1111 24.5Z" fill="url(#paint1_linear_954_5119)" stroke="url(#paint2_linear_954_5119)"/>
</g>
<mask id="path-3-inside-1_954_5119" fill="white">
<path d="M4.7781 36.9628C5.61463 43.252 8.51465 49.0858 13.0235 53.5494C17.5323 58.0131 23.395 60.8543 29.6922 61.6274C35.9895 62.4006 42.3654 61.0621 47.8201 57.8218C53.2748 54.5814 57.4999 49.6225 59.8331 43.7224C62.1662 37.8224 62.4753 31.3149 60.712 25.2203C58.9488 19.1257 55.2128 13.7885 50.0898 10.0456C44.9668 6.30279 38.7466 4.36587 32.4044 4.53858C26.0621 4.71129 19.9565 6.98386 15.0449 11L17.2681 13.7189C21.5778 10.1951 26.9351 8.20101 32.5 8.04946C38.0649 7.89792 43.5228 9.59745 48.0179 12.8816C52.5129 16.1657 55.7911 20.8487 57.3382 26.1964C58.8854 31.5441 58.6141 37.254 56.567 42.4309C54.5198 47.6078 50.8125 51.959 46.0263 54.8022C41.2401 57.6454 35.6457 58.8198 30.1203 58.1414C24.5948 57.463 19.4506 54.9701 15.4944 51.0535C11.5382 47.1369 8.99363 42.0181 8.25962 36.4997L4.7781 36.9628Z"/>
</mask>
<path d="M4.7781 36.9628C5.61463 43.252 8.51465 49.0858 13.0235 53.5494C17.5323 58.0131 23.395 60.8543 29.6922 61.6274C35.9895 62.4006 42.3654 61.0621 47.8201 57.8218C53.2748 54.5814 57.4999 49.6225 59.8331 43.7224C62.1662 37.8224 62.4753 31.3149 60.712 25.2203C58.9488 19.1257 55.2128 13.7885 50.0898 10.0456C44.9668 6.30279 38.7466 4.36587 32.4044 4.53858C26.0621 4.71129 19.9565 6.98386 15.0449 11L17.2681 13.7189C21.5778 10.1951 26.9351 8.20101 32.5 8.04946C38.0649 7.89792 43.5228 9.59745 48.0179 12.8816C52.5129 16.1657 55.7911 20.8487 57.3382 26.1964C58.8854 31.5441 58.6141 37.254 56.567 42.4309C54.5198 47.6078 50.8125 51.959 46.0263 54.8022C41.2401 57.6454 35.6457 58.8198 30.1203 58.1414C24.5948 57.463 19.4506 54.9701 15.4944 51.0535C11.5382 47.1369 8.99363 42.0181 8.25962 36.4997L4.7781 36.9628Z" stroke="#AAEBF3" stroke-opacity="0.32" stroke-width="7.1446" mask="url(#path-3-inside-1_954_5119)"/>
<mask id="path-4-inside-2_954_5119" fill="white">
<path d="M4.77746 36.956C5.61242 43.2454 8.51098 49.0798 13.0187 53.5446C17.5264 58.0094 23.3883 60.852 29.6854 61.6268C35.9825 62.4016 42.3587 61.0646 47.8142 57.8257C53.2698 54.5867 57.4961 49.6288 59.8307 43.7294C62.1653 37.8299 62.4761 31.3225 60.7143 25.2274C58.9526 19.1324 55.2179 13.7943 50.0959 10.0501C44.9739 6.30598 38.7541 4.36751 32.4119 4.53863C26.0696 4.70975 19.9634 6.98079 15.0507 10.9957L17.2733 13.7152C21.5838 10.1924 26.9416 8.19968 32.5066 8.04954C38.0715 7.89939 43.529 9.60028 48.0232 12.8855C52.5175 16.1708 55.7944 20.8546 57.3403 26.2027C58.8861 31.5507 58.6134 37.2606 56.565 42.437C54.5165 47.6134 50.8081 51.9636 46.0212 54.8056C41.2343 57.6476 35.6396 58.8207 30.1143 58.1409C24.589 57.4611 19.4455 54.9669 15.4903 51.0493C11.535 47.1317 8.99172 42.0123 8.2591 36.4937L4.77746 36.956Z"/>
</mask>
<path d="M4.77746 36.956C5.61242 43.2454 8.51098 49.0798 13.0187 53.5446C17.5264 58.0094 23.3883 60.852 29.6854 61.6268C35.9825 62.4016 42.3587 61.0646 47.8142 57.8257C53.2698 54.5867 57.4961 49.6288 59.8307 43.7294C62.1653 37.8299 62.4761 31.3225 60.7143 25.2274C58.9526 19.1324 55.2179 13.7943 50.0959 10.0501C44.9739 6.30598 38.7541 4.36751 32.4119 4.53863C26.0696 4.70975 19.9634 6.98079 15.0507 10.9957L17.2733 13.7152C21.5838 10.1924 26.9416 8.19968 32.5066 8.04954C38.0715 7.89939 43.529 9.60028 48.0232 12.8855C52.5175 16.1708 55.7944 20.8546 57.3403 26.2027C58.8861 31.5507 58.6134 37.2606 56.565 42.437C54.5165 47.6134 50.8081 51.9636 46.0212 54.8056C41.2343 57.6476 35.6396 58.8207 30.1143 58.1409C24.589 57.4611 19.4455 54.9669 15.4903 51.0493C11.535 47.1317 8.99172 42.0123 8.2591 36.4937L4.77746 36.956Z" stroke="#9BF4FF" stroke-opacity="0.32" stroke-width="6" stroke-dasharray="7.14 7.14" mask="url(#path-4-inside-2_954_5119)"/>
<defs>
<filter id="filter0_f_954_5119" x="0.79591" y="0.931164" width="64.1465" height="64.1465" filterUnits="userSpaceOnUse" color-interpolation-filters="sRGB">
<feFlood flood-opacity="0" result="BackgroundImageFix"/>
<feBlend mode="normal" in="SourceGraphic" in2="BackgroundImageFix" result="shape"/>
<feGaussianBlur stdDeviation="8.78662" result="effect1_foregroundBlur_954_5119"/>
</filter>
<linearGradient id="paint0_linear_954_5119" x1="22.512" y1="18.5044" x2="49.4406" y2="49.5758" gradientUnits="userSpaceOnUse">
<stop offset="0.185591" stop-color="#8FF2FF"/>
<stop offset="1" stop-color="#02F6FF"/>
</linearGradient>
<linearGradient id="paint1_linear_954_5119" x1="32.5" y1="8.52419" x2="32.5" y2="55.4113" gradientUnits="userSpaceOnUse">
<stop stop-color="#258998"/>
<stop offset="0.2104" stop-color="#189EB0"/>
<stop offset="0.5195" stop-color="#00C3DA"/>
<stop offset="0.685757" stop-color="#61D6E7"/>
<stop offset="1" stop-color="#C2EAF5"/>
</linearGradient>
<linearGradient id="paint2_linear_954_5119" x1="32.5" y1="8.52419" x2="32.5" y2="55.4113" gradientUnits="userSpaceOnUse">
<stop stop-color="#258998"/>
<stop offset="0.2104" stop-color="#189EB0"/>
<stop offset="0.5195" stop-color="#00C3DA"/>
<stop offset="0.685757" stop-color="#61D6E7"/>
<stop offset="1" stop-color="#C2EAF5"/>
</linearGradient>
<clipPath id="clip0_954_5119">
<rect width="19" height="19" fill="white" transform="translate(23 24)"/>
</clipPath>
</defs>
</svg>
