<svg width="24" height="25" viewBox="0 0 24 25" fill="none" xmlns="http://www.w3.org/2000/svg">
<path d="M3.2 21.9574V3.53105H20.8V21.9573L18.1109 20.1646L18 20.0907L17.8891 20.1646L15 22.0907L12.1109 20.1646L12 20.0907L11.8891 20.1646L9 22.0907L6.11094 20.1646L6 20.0907L5.88906 20.1646L3.2 21.9574ZM18.8898 18.758L19.2 18.9627V18.5911V5.33105V5.13105H19H5H4.8V5.33105V18.5911V18.9627L5.11017 18.758L5.99944 18.1711L8.88906 20.0975L9 20.1714L9.11094 20.0975L12 18.1714L14.8891 20.0975L15 20.1714L15.1109 20.0975L18.0006 18.1711L18.8898 18.758ZM16.8 7.53105V9.13105H15.2V7.53105H16.8ZM12.8 7.53105V9.13105H7.2V7.53105H12.8ZM7.2 13.1311V11.5311H12.8V13.1311H7.2ZM16.8 13.1311H15.2V11.5311H16.8V13.1311Z" fill="#e0e0e0" stroke="white" stroke-width="0.4"/>
</svg>
