<svg width="30" height="28" viewBox="0 0 30 28" fill="none" xmlns="http://www.w3.org/2000/svg">
<path d="M12.5 21.0002C12.8315 21.0002 13.1495 20.8772 13.3839 20.6585C13.6183 20.4397 13.75 20.1429 13.75 19.8335V12.8335C13.75 12.5241 13.6183 12.2273 13.3839 12.0085C13.1495 11.7897 12.8315 11.6668 12.5 11.6668C12.1685 11.6668 11.8505 11.7897 11.6161 12.0085C11.3817 12.2273 11.25 12.5241 11.25 12.8335V19.8335C11.25 20.1429 11.3817 20.4397 11.6161 20.6585C11.8505 20.8772 12.1685 21.0002 12.5 21.0002ZM25 7.00016H20V5.8335C20 4.90524 19.6049 4.015 18.9017 3.35862C18.1984 2.70225 17.2446 2.3335 16.25 2.3335H13.75C12.7554 2.3335 11.8016 2.70225 11.0983 3.35862C10.3951 4.015 10 4.90524 10 5.8335V7.00016H5C4.66848 7.00016 4.35054 7.12308 4.11612 7.34187C3.8817 7.56066 3.75 7.85741 3.75 8.16683C3.75 8.47625 3.8817 8.77299 4.11612 8.99179C4.35054 9.21058 4.66848 9.3335 5 9.3335H6.25V22.1668C6.25 23.0951 6.64509 23.9853 7.34835 24.6417C8.05161 25.2981 9.00544 25.6668 10 25.6668H20C20.9946 25.6668 21.9484 25.2981 22.6517 24.6417C23.3549 23.9853 23.75 23.0951 23.75 22.1668V9.3335H25C25.3315 9.3335 25.6495 9.21058 25.8839 8.99179C26.1183 8.77299 26.25 8.47625 26.25 8.16683C26.25 7.85741 26.1183 7.56066 25.8839 7.34187C25.6495 7.12308 25.3315 7.00016 25 7.00016ZM12.5 5.8335C12.5 5.52408 12.6317 5.22733 12.8661 5.00854C13.1005 4.78975 13.4185 4.66683 13.75 4.66683H16.25C16.5815 4.66683 16.8995 4.78975 17.1339 5.00854C17.3683 5.22733 17.5 5.52408 17.5 5.8335V7.00016H12.5V5.8335ZM21.25 22.1668C21.25 22.4762 21.1183 22.773 20.8839 22.9918C20.6495 23.2106 20.3315 23.3335 20 23.3335H10C9.66848 23.3335 9.35054 23.2106 9.11612 22.9918C8.8817 22.773 8.75 22.4762 8.75 22.1668V9.3335H21.25V22.1668ZM17.5 21.0002C17.8315 21.0002 18.1495 20.8772 18.3839 20.6585C18.6183 20.4397 18.75 20.1429 18.75 19.8335V12.8335C18.75 12.5241 18.6183 12.2273 18.3839 12.0085C18.1495 11.7897 17.8315 11.6668 17.5 11.6668C17.1685 11.6668 16.8505 11.7897 16.6161 12.0085C16.3817 12.2273 16.25 12.5241 16.25 12.8335V19.8335C16.25 20.1429 16.3817 20.4397 16.6161 20.6585C16.8505 20.8772 17.1685 21.0002 17.5 21.0002Z" fill="white"/>
</svg>
