<svg width="20" height="20" viewBox="0 0 20 20" fill="none" xmlns="http://www.w3.org/2000/svg">
<path d="M8.5 10.75H1.5C1.29319 10.75 1.10142 10.82 0.960723 10.9607C0.820028 11.1014 0.75 11.2932 0.75 11.5V18.5C0.75 18.7068 0.820029 18.8986 0.960723 19.0393C1.10142 19.18 1.29319 19.25 1.5 19.25H8.5C8.70681 19.25 8.89858 19.18 9.03928 19.0393C9.17997 18.8986 9.25 18.7068 9.25 18.5V11.5C9.25 11.2932 9.17997 11.1014 9.03928 10.9607C8.89858 10.82 8.70681 10.75 8.5 10.75ZM7.75 17.75H2.25V12.25H7.75V17.75ZM8.5 0.75H1.5C1.29319 0.75 1.10142 0.820028 0.960723 0.960723C0.820028 1.10142 0.75 1.29319 0.75 1.5V8.5C0.75 8.70681 0.820028 8.89858 0.960723 9.03928C1.10142 9.17997 1.29319 9.25 1.5 9.25H8.5C8.70681 9.25 8.89858 9.17997 9.03928 9.03928C9.17997 8.89858 9.25 8.70681 9.25 8.5V1.5C9.25 1.29319 9.17997 1.10142 9.03928 0.960723C8.89858 0.820028 8.70681 0.75 8.5 0.75ZM7.75 7.75H2.25V2.25H7.75V7.75ZM18.5 0.75H11.5C11.2932 0.75 11.1014 0.820028 10.9607 0.960723C10.82 1.10142 10.75 1.29319 10.75 1.5V8.5C10.75 8.70681 10.82 8.89858 10.9607 9.03928C11.1014 9.17997 11.2932 9.25 11.5 9.25H18.5C18.7068 9.25 18.8986 9.17997 19.0393 9.03928C19.18 8.89858 19.25 8.70681 19.25 8.5V1.5C19.25 1.29319 19.18 1.10142 19.0393 0.960723C18.8986 0.820029 18.7068 0.75 18.5 0.75ZM17.75 7.75H12.25V2.25H17.75V7.75ZM18.5 14.25H15.75V11.5C15.75 11.2932 15.68 11.1014 15.5393 10.9607C15.3986 10.82 15.2068 10.75 15 10.75C14.7932 10.75 14.6014 10.82 14.4607 10.9607C14.32 11.1014 14.25 11.2932 14.25 11.5V14.25H11.5C11.2932 14.25 11.1014 14.32 10.9607 14.4607C10.82 14.6014 10.75 14.7932 10.75 15C10.75 15.2068 10.82 15.3986 10.9607 15.5393C11.1014 15.68 11.2932 15.75 11.5 15.75H14.25V18.5C14.25 18.7068 14.32 18.8986 14.4607 19.0393C14.6014 19.18 14.7932 19.25 15 19.25C15.2068 19.25 15.3986 19.18 15.5393 19.0393C15.68 18.8986 15.75 18.7068 15.75 18.5V15.75H18.5C18.7068 15.75 18.8986 15.68 19.0393 15.5393C19.18 15.3986 19.25 15.2068 19.25 15C19.25 14.7932 19.18 14.6014 19.0393 14.4607C18.8986 14.32 18.7068 14.25 18.5 14.25Z" fill="white" stroke="white" stroke-width="0.5"/>
</svg>
