<svg width="60" height="60" viewBox="0 0 60 60" fill="none" xmlns="http://www.w3.org/2000/svg">
<path d="M27.5 50H16.25C12.4583 50 9.21833 48.6875 6.53 46.0625C3.84167 43.4375 2.49833 40.2292 2.5 36.4375C2.5 33.1875 3.47917 30.2917 5.4375 27.75C7.39583 25.2083 9.95833 23.5833 13.125 22.875C14.1667 19.0417 16.25 15.9375 19.375 13.5625C22.5 11.1875 26.0417 10 30 10C34.875 10 39.0108 11.6983 42.4075 15.095C45.8042 18.4917 47.5017 22.6267 47.5 27.5C50.375 27.8333 52.7608 29.0733 54.6575 31.22C56.5542 33.3667 57.5017 35.8767 57.5 38.75C57.5 41.875 56.4058 44.5317 54.2175 46.72C52.0292 48.9083 49.3733 50.0017 46.25 50H32.5V32.125L36.5 36L40 32.5L30 22.5L20 32.5L23.5 36L27.5 32.125V50Z" fill="url(#paint0_linear_64_1170)"/>
<defs>
<linearGradient id="paint0_linear_64_1170" x1="2.5" y1="30" x2="57.5" y2="30" gradientUnits="userSpaceOnUse">
<stop stop-color="#146263"/>
<stop offset="0.47" stop-color="#27839B"/>
<stop offset="1" stop-color="#3F4C88"/>
</linearGradient>
</defs>
</svg>
