<svg width="24" height="24" viewBox="0 0 24 24" fill="none" xmlns="http://www.w3.org/2000/svg">
<rect width="24" height="24" rx="12" fill="#7103D9"/>
<path d="M17.999 11.9992V11.9963C17.999 10.2208 17.2261 8.6264 15.9987 7.52994L15.9927 7.52494C15.9775 7.50861 15.9606 7.49402 15.9422 7.48145L15.9412 7.48095C14.851 6.52387 13.4492 5.99732 11.9985 6.00001C10.4826 6.00001 9.09874 6.56299 8.04383 7.49195L8.05033 7.48645C8.03765 7.49614 8.02593 7.50702 8.01533 7.51894C7.38117 8.08054 6.87357 8.77096 6.52613 9.54352C6.17869 10.3161 5.99936 11.1537 6 12.0008C6 13.7757 6.77194 15.3701 7.99833 16.4671L8.00433 16.4721C8.02029 16.49 8.03805 16.5062 8.05733 16.5206L8.05833 16.5211C9.14816 17.4768 10.549 18.0026 11.9985 18C13.4548 18.0022 14.8616 17.4716 15.9537 16.5081L15.9472 16.5136C16.5923 15.9526 17.1095 15.2596 17.4637 14.4815C17.8178 13.7033 18.0007 12.8582 18 12.0033V11.9998L17.999 11.9992ZM15.7682 15.9016C15.4709 15.6613 15.1513 15.45 14.8138 15.2706L14.7813 15.2546C15.0877 14.3711 15.2722 13.3527 15.2897 12.2932V12.2852H17.42C17.3484 13.6559 16.7584 14.9481 15.7697 15.9001L15.7682 15.9016ZM12.2855 15.1491C12.9269 15.1836 13.5264 15.3246 14.0793 15.5541L14.0433 15.5411C13.6004 16.5511 12.9769 17.245 12.2855 17.3975V15.1491ZM12.2855 14.5771V12.2852H14.7193C14.6999 13.2343 14.5353 14.1748 14.2313 15.0741L14.2508 15.0086C13.6302 14.7531 12.97 14.6073 12.2995 14.5776L12.286 14.5771H12.2855ZM12.2855 11.7133V9.42136C12.974 9.39004 13.6519 9.2393 14.2888 8.97588L14.2493 8.99038C14.5268 9.79985 14.6973 10.7328 14.7193 11.7028V11.7133H12.2855ZM12.2855 8.84939V6.60198C12.9769 6.75448 13.6004 7.44545 14.0433 8.4584C13.5264 8.67339 12.9269 8.81389 12.3 8.84889L12.2855 8.84939ZM13.7124 6.84947C14.3016 7.04561 14.8527 7.34194 15.3412 7.72544L15.3297 7.71644C15.1082 7.89043 14.8598 8.05442 14.5978 8.19691L14.5698 8.21091C14.3586 7.71101 14.0675 7.24882 13.7079 6.84247L13.7124 6.84797V6.84947ZM11.7125 6.60348V8.84939C11.0958 8.81796 10.4891 8.68098 9.91867 8.4444L9.95467 8.4574C10.3996 7.44745 11.0221 6.75398 11.7135 6.60148L11.7125 6.60348ZM9.42871 8.20941C9.15777 8.06348 8.89955 7.89507 8.65678 7.70594L8.66878 7.71494C9.14307 7.34268 9.67688 7.05328 10.2476 6.85897L10.2856 6.84747C9.93575 7.24307 9.65074 7.69161 9.44121 8.17642L9.42871 8.20941ZM11.7135 9.42086V11.7128H9.27973C9.30173 10.7323 9.47221 9.79935 9.76919 8.92438L9.74969 8.98988C10.3703 9.24413 11.03 9.38974 11.7 9.42036L11.7135 9.42086ZM11.7135 12.2847V14.5766C11.025 14.608 10.3471 14.7587 9.71019 15.0221L9.74969 15.0076C9.47221 14.1987 9.30173 13.2652 9.27973 12.2952V12.2847H11.7135ZM11.7135 15.1486V17.396C11.0221 17.2435 10.3986 16.5526 9.95567 15.5396C10.4726 15.3246 11.0721 15.1846 11.699 15.1496L11.7135 15.1486ZM10.2886 17.1485C9.69988 16.9521 9.14901 16.6565 8.65978 16.2746L8.67178 16.2836C8.89326 16.1096 9.14174 15.9456 9.40372 15.8031L9.43171 15.7891C9.64129 16.2891 9.93238 16.7508 10.2931 17.1555L10.2886 17.1505V17.1485ZM14.5703 15.7886C14.8603 15.9461 15.1087 16.1096 15.3422 16.2921L15.3302 16.2831C14.8559 16.6553 14.3221 16.9447 13.7514 17.139L13.7134 17.1505C14.0632 16.7551 14.3482 16.3067 14.5578 15.8221L14.5703 15.7896V15.7886ZM17.42 11.7133H15.2897C15.2741 10.6788 15.0956 9.65328 14.7608 8.67439L14.7813 8.74339C15.1344 8.55738 15.4688 8.33771 15.7797 8.08742L15.7677 8.09642C16.7548 9.04451 17.345 10.3321 17.419 11.6988L17.42 11.7133ZM8.23081 8.09692C8.51879 8.33091 8.84226 8.5454 9.18524 8.72789L9.21773 8.74389C8.91126 9.62735 8.72677 10.6458 8.70928 11.7053V11.7133H6.57845C6.6501 10.3426 7.24006 9.05036 8.22882 8.09842L8.23081 8.09692ZM6.57895 12.2852H8.70928C8.72491 13.3197 8.90342 14.3452 9.23823 15.3241L9.21773 15.2551C8.84226 15.4546 8.51929 15.6691 8.21932 15.9111L8.23131 15.9021C7.24423 14.954 6.65399 13.6664 6.57995 12.2997L6.57945 12.2857L6.57895 12.2852Z" fill="white"/>
</svg>
