<svg width="24" height="24" viewBox="0 0 24 24" fill="none" xmlns="http://www.w3.org/2000/svg">
<rect width="24" height="24" rx="12" fill="#7103D9"/>
<path d="M8.2 16.2V10.8C8.2 9.84517 8.57928 8.9295 9.25442 8.25437C9.92955 7.57924 10.8452 7.19995 11.8 7.19995C12.7548 7.19995 13.6705 7.57924 14.3456 8.25437C15.0207 8.9295 15.4 9.84517 15.4 10.8V16.2M8.2 16.2H15.4M8.2 16.2H7M15.4 16.2H16.6M11.2 18H12.4" stroke="white" stroke-width="0.7" stroke-linecap="round" stroke-linejoin="round"/>
<path d="M11.8 7.2C12.1313 7.2 12.4 6.93137 12.4 6.6C12.4 6.26863 12.1313 6 11.8 6C11.4686 6 11.2 6.26863 11.2 6.6C11.2 6.93137 11.4686 7.2 11.8 7.2Z" stroke="white" stroke-width="0.7"/>
</svg>
