<svg width="24" height="24" viewBox="0 0 24 24" fill="none" xmlns="http://www.w3.org/2000/svg">
<path d="M23.931 19.6867L19.542 11.5702C19.9897 10.5539 20.2402 9.43079 20.2402 8.24916C20.2402 3.69516 16.5484 0.00366211 11.9947 0.00366211C7.44 0.00366211 3.7485 3.69554 3.7485 8.24916C3.7485 9.45929 4.01137 10.6075 4.47937 11.6425L0.0708728 19.6829C-0.0712756 19.9413 -0.0476506 20.26 0.130099 20.4959C0.308224 20.7311 0.608974 20.8417 0.896201 20.7742L4.66083 19.9106L5.94933 23.4993C6.04983 23.7783 6.30445 23.9718 6.59958 23.9936C6.61872 23.9951 6.63708 23.9958 6.65508 23.9958C6.79069 23.9958 6.92375 23.9589 7.04011 23.8893C7.15646 23.8196 7.25174 23.7197 7.31583 23.6002L11.1525 16.4523C11.4322 16.4807 11.7132 16.4948 11.9943 16.4947C12.255 16.4947 12.5122 16.4812 12.7664 16.4572L16.6863 23.6058C16.7557 23.7325 16.8602 23.8365 16.9872 23.9052C17.1143 23.974 17.2585 24.0045 17.4026 23.9932C17.6969 23.9696 17.9504 23.7764 18.0502 23.4989L19.3387 19.9102L23.1033 20.7738C23.392 20.8435 23.6898 20.7314 23.8679 20.497C24.0468 20.263 24.0708 19.9458 23.9309 19.6867H23.931ZM6.79153 21.4064L5.84798 18.7776C5.71898 18.4203 5.34476 18.2121 4.97423 18.3003L2.18986 18.9389L5.36353 13.1504C6.40865 14.5623 7.89365 15.6273 9.61603 16.1455L6.79153 21.4064ZM5.25513 8.24914C5.25513 4.53326 8.27878 1.51001 11.995 1.51001C15.7109 1.51001 18.7341 4.53326 18.7341 8.24914C18.7341 11.965 15.7109 14.989 11.995 14.989C8.27838 14.989 5.25513 11.965 5.25513 8.24914ZM19.0251 18.3002C18.6531 18.2125 18.2804 18.4202 18.1514 18.7776L17.2015 21.4255L14.3151 16.1623C16.0832 15.6445 17.6043 14.5514 18.6629 13.0982L21.8234 18.9419L19.0251 18.3002Z" fill="white"/>
</svg>
