<svg width="88" height="88" viewBox="0 0 88 88" fill="none" xmlns="http://www.w3.org/2000/svg">
<path d="M14.6666 60.5007C14.6666 63.418 15.8255 66.2159 17.8884 68.2788C19.9513 70.3417 22.7492 71.5007 25.6666 71.5007C25.6666 73.9318 26.6324 76.2634 28.3514 77.9825C30.0705 79.7015 32.4021 80.6673 34.8333 80.6673C37.2644 80.6673 39.596 79.7015 41.3151 77.9825C43.0341 76.2634 43.9999 73.9318 43.9999 71.5007C43.9999 73.9318 44.9657 76.2634 46.6848 77.9825C48.4039 79.7015 50.7354 80.6673 53.1666 80.6673C55.5977 80.6673 57.9293 79.7015 59.6484 77.9825C61.3675 76.2634 62.3333 73.9318 62.3333 71.5007C64.2834 71.5008 66.1985 70.9825 67.8824 69.9989C69.5663 69.0153 70.9584 67.6017 71.9162 65.903C72.8739 64.2043 73.3629 62.2815 73.3329 60.3316C73.3029 58.3817 72.7551 56.4748 71.7456 54.8063C74.2553 54.3214 76.5178 52.9779 78.1448 51.0064C79.7718 49.035 80.6617 46.5586 80.6617 44.0025C80.6617 41.4464 79.7718 38.97 78.1448 36.9986C76.5178 35.0271 74.2553 33.6836 71.7456 33.1987C72.756 31.5301 73.3046 29.6228 73.3351 27.6724C73.3655 25.7219 72.8768 23.7985 71.9189 22.0992C70.961 20.3999 69.5685 18.9859 67.8841 18.0021C66.1997 17.0183 64.2839 16.5001 62.3333 16.5007C62.3333 14.0695 61.3675 11.7379 59.6484 10.0188C57.9293 8.29976 55.5977 7.33398 53.1666 7.33398C50.7354 7.33398 48.4039 8.29976 46.6848 10.0188C44.9657 11.7379 43.9999 14.0695 43.9999 16.5007C43.9999 14.0695 43.0341 11.7379 41.3151 10.0188C39.596 8.29976 37.2644 7.33398 34.8333 7.33398C32.4021 7.33398 30.0705 8.29976 28.3514 10.0188C26.6324 11.7379 25.6666 14.0695 25.6666 16.5007C23.7165 16.5005 21.8013 17.0188 20.1175 18.0024C18.4336 18.986 17.0414 20.3996 16.0837 22.0983C15.1259 23.797 14.637 25.7198 14.667 27.6697C14.6969 29.6196 15.2447 31.5265 16.2543 33.195C13.7446 33.6799 11.482 35.0234 9.85501 36.9949C8.22802 38.9663 7.33813 41.4427 7.33813 43.9988C7.33813 46.5549 8.22802 49.0313 9.85501 51.0027C11.482 52.9742 13.7446 54.3177 16.2543 54.8027C15.2147 56.5214 14.6656 58.492 14.6666 60.5007Z" stroke="#89FEFF" stroke-width="6" stroke-linecap="round" stroke-linejoin="round"/>
<path d="M27.5 53.168L34.254 32.906C34.4235 32.4003 34.7477 31.9607 35.1806 31.6493C35.6135 31.3378 36.1333 31.1702 36.6667 31.1702C37.2 31.1702 37.7198 31.3378 38.1527 31.6493C38.5857 31.9607 38.9098 32.4003 39.0793 32.906L45.8333 53.168M56.8333 31.168V53.168M31.1667 45.8346H42.1667" stroke="#89FEFF" stroke-width="6" stroke-linecap="round" stroke-linejoin="round"/>
</svg>
