<svg width="88" height="88" viewBox="0 0 88 88" fill="none" xmlns="http://www.w3.org/2000/svg">
<path d="M16.2495 27.6277L16.0001 27.7721V28.0604V59.9384V60.2267L16.2496 60.3711L24.9469 65.4054L25.2297 65.5691L25.4931 65.3759L54.8261 43.8658L71.2428 53.7194L72.0001 54.174V53.2907V28.064V27.7758L71.7507 27.6314L44.2507 11.7034L44.0001 11.5582L43.7495 11.7033L16.2495 27.6277ZM37.832 41.4979C36.5505 42.7794 34.8124 43.4994 33.0001 43.4994C31.1878 43.4994 29.4497 42.7794 28.1682 41.4979C26.8867 40.2164 26.1667 38.4783 26.1667 36.666C26.1667 34.8537 26.8867 33.1156 28.1682 31.8341C29.4497 30.5526 31.1878 29.8327 33.0001 29.8327C34.8124 29.8327 36.5505 30.5526 37.832 31.8341C39.1135 33.1156 39.8334 34.8537 39.8334 36.666C39.8334 38.4783 39.1135 40.2164 37.832 41.4979ZM9.66675 24.121L44.0001 4.24377L78.3334 24.121V63.8777L44.0001 83.7549L9.66675 63.8777V24.121Z" fill="#89FEFF" stroke="#89FEFF"/>
</svg>
