<svg width="88" height="88" viewBox="0 0 88 88" fill="none" xmlns="http://www.w3.org/2000/svg">
<g opacity="0.3">
<path d="M33.0001 43.9994C34.945 43.9994 36.8103 43.2267 38.1855 41.8515C39.5608 40.4762 40.3334 38.6109 40.3334 36.666C40.3334 34.7211 39.5608 32.8558 38.1855 31.4806C36.8103 30.1053 34.945 29.3327 33.0001 29.3327C31.0552 29.3327 29.1899 30.1053 27.8146 31.4806C26.4394 32.8558 25.6667 34.7211 25.6667 36.666C25.6667 38.6109 26.4394 40.4762 27.8146 41.8515C29.1899 43.2267 31.0552 43.9994 33.0001 43.9994ZM44.0001 3.66602L78.8334 23.8327V64.166L44.0001 84.3327L9.16675 64.166V23.8327L44.0001 3.66602ZM16.5001 28.0604V59.9384L25.1974 64.9727L54.7984 43.266L71.5001 53.2907V28.064L44.0001 12.136L16.5001 28.0604Z" fill="#27839B"/>
</g>
</svg>
