<svg width="25" height="24" viewBox="0 0 25 24" fill="none" xmlns="http://www.w3.org/2000/svg">
<rect width="25" height="24" rx="12" fill="#207989"/>
<path fill-rule="evenodd" clip-rule="evenodd" d="M6.25 11.25C6.25 8.42175 6.25 7.00725 7.129 6.129C8.00725 5.25 9.42175 5.25 12.25 5.25H13.75C16.5782 5.25 17.9927 5.25 18.871 6.129C19.75 7.00725 19.75 8.42175 19.75 11.25V12.75C19.75 15.5782 19.75 16.9927 18.871 17.871C17.9927 18.75 16.5782 18.75 13.75 18.75H12.25C9.42175 18.75 8.00725 18.75 7.129 17.871C6.25 16.9927 6.25 15.5782 6.25 12.75V11.25ZM17.5 8.625C17.5 8.92337 17.3815 9.20952 17.1705 9.4205C16.9595 9.63147 16.6734 9.75 16.375 9.75C16.0766 9.75 15.7905 9.63147 15.5795 9.4205C15.3685 9.20952 15.25 8.92337 15.25 8.625C15.25 8.32663 15.3685 8.04048 15.5795 7.8295C15.7905 7.61853 16.0766 7.5 16.375 7.5C16.6734 7.5 16.9595 7.61853 17.1705 7.8295C17.3815 8.04048 17.5 8.32663 17.5 8.625ZM14.5 12.75C14.5 13.1478 14.342 13.5294 14.0607 13.8107C13.7794 14.092 13.3978 14.25 13 14.25C12.6022 14.25 12.2206 14.092 11.9393 13.8107C11.658 13.5294 11.5 13.1478 11.5 12.75C11.5 12.3522 11.658 11.9706 11.9393 11.6893C12.2206 11.408 12.6022 11.25 13 11.25C13.3978 11.25 13.7794 11.408 14.0607 11.6893C14.342 11.9706 14.5 12.3522 14.5 12.75ZM16 12.75C16 13.5456 15.6839 14.3087 15.1213 14.8713C14.5587 15.4339 13.7956 15.75 13 15.75C12.2044 15.75 11.4413 15.4339 10.8787 14.8713C10.3161 14.3087 10 13.5456 10 12.75C10 11.9544 10.3161 11.1913 10.8787 10.6287C11.4413 10.0661 12.2044 9.75 13 9.75C13.7956 9.75 14.5587 10.0661 15.1213 10.6287C15.6839 11.1913 16 11.9544 16 12.75Z" fill="white"/>
</svg>
