<svg width="80" height="82" viewBox="0 0 80 82" fill="none" xmlns="http://www.w3.org/2000/svg">
<g opacity="0.3" clip-path="url(#clip0_344_1052)">
<path d="M8.76758 28.8884C8.76758 29.179 8.91567 29.3243 9.06376 29.6149C9.21186 29.7602 9.50804 29.9056 9.95232 30.0509V28.002C9.21186 28.002 8.76758 28.2926 8.76758 28.8738V28.8884Z" fill="#27839B"/>
<path d="M12.1881 34.2934C12.1881 34.0027 12.04 33.7121 11.8919 33.5668C11.5957 33.4215 11.2995 33.2762 10.8552 33.1309V35.1798C11.7438 35.1798 12.1881 34.8891 12.1881 34.3079V34.2934Z" fill="#27839B"/>
<path d="M10.2632 41.7345C15.9204 41.7345 20.378 37.2153 20.378 31.8096C20.378 26.404 15.7723 21.8848 10.2632 21.8848C4.75414 21.8848 0.148438 26.4185 0.148438 31.8096C0.148438 37.2007 4.60605 41.7345 10.2632 41.7345ZM9.07846 32.6815C8.48609 32.5362 8.04181 32.3909 7.59753 32.1003C7.15325 31.9549 6.85706 31.6643 6.56088 31.3737C6.26469 31.0831 6.1166 30.7924 5.9685 30.5018C5.82041 30.2112 5.82041 29.7752 5.82041 29.3393C5.82041 28.7581 5.9685 28.1768 6.1166 27.7409C6.26469 27.3049 6.56088 26.869 7.00516 26.5784C7.30134 26.2877 7.74562 25.9971 8.1899 25.8518C8.63418 25.7065 9.22656 25.5612 9.67084 25.4159V23.6721H10.8556V25.4159C11.596 25.4159 12.3365 25.7065 12.9437 25.8518C13.5361 26.1424 14.1284 26.4331 14.7356 26.7237L13.5509 29.0632C13.5509 29.0632 13.4028 28.9179 13.2547 28.7726C13.1066 28.6273 12.8104 28.6273 12.6623 28.482C12.3661 28.3367 12.0699 28.1913 11.7738 28.1913C11.4776 28.046 11.1814 28.046 10.7371 27.9007V30.2402L11.3295 30.3856C11.9219 30.5309 12.5142 30.6762 12.9585 30.9668C13.4028 31.1121 13.8471 31.4028 14.1433 31.6934C14.4394 31.984 14.7356 32.2746 14.8837 32.7106C15.0318 33.1465 15.1799 33.5824 15.1799 34.1637C15.1799 34.7449 15.0318 35.3262 14.8837 35.7621C14.5875 36.1981 14.2913 36.634 13.9952 36.9246C13.5509 37.2153 13.1066 37.3606 12.6623 37.6512C12.218 37.9418 11.6257 37.9418 11.0333 37.9418V39.9907H9.84855V37.9418C9.10808 37.9418 8.21952 37.6512 7.46425 37.5059C6.72378 37.2153 5.98331 36.9246 5.37613 36.4887L6.56088 34.0038C6.56088 34.0038 6.70897 34.1492 7.00516 34.2945C7.15325 34.4398 7.44944 34.5851 7.74562 34.7304C8.04181 34.8757 8.338 35.021 8.78228 35.1664C9.22656 35.3117 9.52274 35.457 9.96702 35.457V33.1174L9.07846 32.6815Z" fill="#27839B"/>
<path d="M50.2628 76.4629H29.7371V82.0138H50.2628V76.4629Z" fill="#27839B"/>
<path d="M38.0747 30.7911C43.7319 30.7911 48.1895 26.2719 48.1895 20.8663C48.1895 15.4606 43.5838 10.9414 38.0747 10.9414C32.5657 10.9414 27.96 15.4606 27.96 20.8663C27.96 26.2719 32.5657 30.7911 38.0747 30.7911ZM37.0233 21.7381C36.4309 21.5928 35.9866 21.4475 35.5423 21.1569C35.0981 21.0116 34.8019 20.721 34.5057 20.4303C34.2095 20.1397 34.0614 19.8491 33.9133 19.5585C33.7652 19.2678 33.6171 18.8319 33.6171 18.396C33.6171 17.8147 33.7652 17.2334 33.9133 16.7975C34.0614 16.3616 34.3576 15.9256 34.8019 15.635C35.0981 15.3444 35.5423 15.0538 35.9866 14.9084C36.4309 14.7631 37.0233 14.6178 37.4676 14.4725V12.7142H38.6523V14.4725C39.3928 14.4725 40.1332 14.7631 40.7404 14.9084C41.3328 15.1991 41.9252 15.4897 42.5323 15.7803L41.3476 18.1199C41.3476 18.1199 41.1995 17.9745 41.0514 17.8292C40.9033 17.6839 40.6071 17.6839 40.459 17.5386C40.1628 17.3933 39.8667 17.248 39.5705 17.248C39.2743 17.1027 38.9781 17.1027 38.5338 16.9574V19.2969L39.1262 19.4422C39.7186 19.5875 40.3109 19.7328 40.7552 20.0235C41.1995 20.1688 41.6438 20.4594 41.94 20.75C42.2362 21.0406 42.5323 21.3313 42.6804 21.7672C42.8285 22.2031 42.9766 22.6391 42.9766 23.2203C42.9766 23.8016 42.8285 24.3828 42.6804 24.8188C42.3842 25.2547 42.0881 25.6906 41.7919 25.9813C41.3476 26.2719 40.9033 26.4172 40.459 26.7078C40.0148 26.8532 39.4224 26.9985 38.83 26.9985V29.0474H37.6453V26.9985C36.9048 26.9985 36.0162 26.7078 35.261 26.5625C34.5205 26.2719 33.78 25.9813 33.1728 25.5453L34.3576 23.0605C34.3576 23.0605 34.5057 23.2058 34.8019 23.3511C34.95 23.4964 35.2462 23.6417 35.5423 23.7871C35.8385 23.9324 36.1347 24.0777 36.579 24.223C37.0233 24.3683 37.3195 24.5136 37.7637 24.5136V22.1741L37.0233 21.7381Z" fill="#27839B"/>
<path d="M40.0001 23.352C40.0001 23.0613 39.852 22.7707 39.7039 22.6254C39.4077 22.4801 39.1115 22.3348 38.6672 22.1895V24.2384C39.5558 24.2384 40.0001 23.9477 40.0001 23.3665V23.352Z" fill="#27839B"/>
<path d="M36.5791 17.947C36.5791 18.2376 36.7272 18.3829 36.8753 18.6735C37.0234 18.8188 37.3196 18.9641 37.7638 19.1095V17.0605C37.0234 17.0605 36.5791 17.3512 36.5791 17.9324V17.947Z" fill="#27839B"/>
<path d="M20.5257 76.4629H0V82.0138H20.5257V76.4629Z" fill="#27839B"/>
<path d="M37.1713 53.6921C37.1713 54.1281 36.7271 54.564 36.2828 54.564C35.8385 54.564 35.3942 54.1281 35.3942 53.6921V39.9746H29.7371V69.1534H50.2628V39.9746H37.1713V53.6921ZM38.2228 59.0978C38.2228 60.115 37.3342 61.0014 36.2828 61.0014C35.2313 61.0014 34.3428 60.1295 34.3428 59.0978C34.3428 58.066 35.2313 57.1942 36.2828 57.1942C37.3342 57.1942 38.2228 58.066 38.2228 59.0978Z" fill="#27839B"/>
<path d="M8.47092 7.14861C9.95185 7.14861 11.2995 5.9861 11.2995 4.37313C11.2995 2.76016 10.1148 1.59766 8.47092 1.59766C6.82708 1.59766 5.64233 2.90547 5.64233 4.37313C5.64233 5.84079 6.82708 7.14861 8.47092 7.14861Z" fill="#27839B"/>
<path d="M47.1382 8.4572C48.6191 8.4572 49.9667 7.2947 49.9667 5.68172C49.9667 4.06875 48.782 2.90625 47.1382 2.90625C45.4943 2.90625 44.3096 4.06875 44.3096 5.68172C44.3096 7.2947 45.6424 8.4572 47.1382 8.4572Z" fill="#27839B"/>
<path d="M68.2559 7.0036C68.2559 7.29422 68.404 7.43953 68.552 7.73016C68.7001 7.87547 68.9963 8.02078 69.4406 8.1661V6.11719C68.7001 6.11719 68.2559 6.40781 68.2559 6.98906V7.0036Z" fill="#27839B"/>
<path d="M71.6776 12.4086C71.6776 12.118 71.5295 11.8273 71.3814 11.682C71.0852 11.5367 70.789 11.3914 70.3447 11.2461V13.295C71.2333 13.295 71.6776 13.0044 71.6776 12.4231V12.4086Z" fill="#27839B"/>
<path d="M59.489 29.0332V69.1686H80.0147V29.0332H59.489ZM70.6404 62.7458C70.6404 63.1817 70.1962 63.6176 69.7519 63.6176C69.3076 63.6176 68.8633 63.1817 68.8633 62.7458V49.9001C68.8633 49.4642 69.3076 49.0282 69.7519 49.0282C70.1962 49.0282 70.6404 49.4642 70.6404 49.9001V62.7458ZM69.7519 46.3981C68.7152 46.3981 67.8119 45.5262 67.8119 44.4945C67.8119 43.4628 68.7004 42.5909 69.7519 42.5909C70.8033 42.5909 71.6919 43.4628 71.6919 44.4945C71.6919 45.5262 70.8033 46.3981 69.7519 46.3981Z" fill="#27839B"/>
<path d="M69.7515 19.8497C75.4087 19.8497 79.8663 15.3305 79.8663 9.92486C79.8663 4.51923 75.2606 0 69.7515 0C64.2424 0 59.6367 4.51923 59.6367 9.92486C59.6367 15.3305 64.0943 19.8497 69.7515 19.8497ZM68.5519 10.7967C67.9596 10.6514 67.5153 10.5061 67.071 10.2155C66.6267 10.0702 66.3305 9.77955 66.0343 9.48892C65.7382 9.1983 65.5901 8.90767 65.442 8.61705C65.2939 8.32642 65.2939 7.89048 65.2939 7.45455C65.2939 6.87329 65.442 6.29204 65.5901 5.8561C65.7382 5.42017 66.0343 4.98423 66.4786 4.6936C66.7748 4.40298 67.2191 4.11235 67.6634 3.96704C68.1077 3.82173 68.7 3.67641 69.1443 3.5311V1.77282H70.3291V3.5311C71.0695 3.5311 71.81 3.82173 72.4172 3.96704C73.0095 4.25766 73.6019 4.54829 74.1943 4.83891L73.0095 7.17845C73.0095 7.17845 72.8614 7.03314 72.7134 6.88782C72.5653 6.74251 72.2691 6.74251 72.121 6.5972C71.8248 6.45189 71.5286 6.30657 71.2324 6.30657C70.9362 6.16126 70.6401 6.16126 70.1958 6.01595V8.35548L70.7881 8.5008C71.3805 8.64611 71.9729 8.79142 72.4172 9.08205C72.8615 9.22736 73.3057 9.51799 73.6019 9.80861C73.8981 10.0992 74.1943 10.3899 74.3424 10.8258C74.4905 11.2617 74.6386 11.6977 74.6386 12.2789C74.6386 12.8602 74.4905 13.4414 74.3424 13.8919C74.0462 14.3278 73.75 14.7638 73.4538 15.0544C73.0095 15.345 72.5653 15.4903 72.121 15.781C71.6767 15.9263 71.0843 16.0716 70.492 16.0716V18.1205H69.3072V16.0716C68.5667 16.0716 67.6782 15.781 66.9229 15.6357C66.1824 15.345 65.442 15.0544 64.8348 14.6185L66.0195 12.1336C66.0195 12.1336 66.1676 12.2789 66.4638 12.4242C66.6119 12.5696 66.9081 12.7149 67.2043 12.8602C67.5005 13.0055 67.7967 13.1508 68.2409 13.2961C68.6852 13.4414 68.9814 13.5867 69.4257 13.5867V11.2472L68.5371 10.8113L68.5519 10.7967Z" fill="#27839B"/>
<path d="M80.0147 76.4629H59.489V82.0138H80.0147V76.4629Z" fill="#27839B"/>
<path d="M0 69.1684H13.0914V61.0018C13.0914 60.5659 13.5357 60.1299 13.98 60.1299C14.4243 60.1299 14.8686 60.5659 14.8686 61.0018V69.1684H20.5257V50.9316H0V69.1684Z" fill="#27839B"/>
</g>
<defs>
<clipPath id="clip0_344_1052">
<rect width="80" height="82" fill="white"/>
</clipPath>
</defs>
</svg>
