<svg width="25" height="24" viewBox="0 0 25 24" fill="none" xmlns="http://www.w3.org/2000/svg">
<rect width="25" height="24" rx="12" fill="#207989"/>
<mask id="path-2-inside-1_629_3329" fill="white">
<path d="M19.9824 7.44023L18.3614 17.2977C18.3391 17.4336 18.2815 17.5621 18.194 17.6716C18.1064 17.7812 17.9916 17.8684 17.8598 17.9254C17.728 17.9823 17.5833 18.0074 17.4388 17.9981C17.2943 17.9889 17.1545 17.9457 17.0319 17.8725L11.6038 14.6423C11.4909 14.5752 11.3957 14.4846 11.3253 14.3773C11.255 14.2701 11.2113 14.1489 11.1977 14.0232C11.1841 13.8975 11.2008 13.7705 11.2467 13.6518C11.2926 13.5332 11.3664 13.426 11.4625 13.3386L15.9686 9.23685C16.0191 9.19165 15.9597 9.11679 15.9002 9.15069L9.36855 12.8626C8.98032 13.0843 8.51929 13.1613 8.07472 13.0787L5.71012 12.6451C4.85649 12.4883 4.73901 11.3753 5.54059 11.0603L18.1845 6.09558C18.3998 6.01047 18.6353 5.98145 18.8664 6.01153C19.0975 6.04161 19.316 6.1297 19.4994 6.26671C19.6827 6.40371 19.8243 6.58468 19.9095 6.79096C19.9946 6.99725 20.0203 7.22137 19.9839 7.44023"/>
</mask>
<path d="M19.9824 7.44023L18.3614 17.2977C18.3391 17.4336 18.2815 17.5621 18.194 17.6716C18.1064 17.7812 17.9916 17.8684 17.8598 17.9254C17.728 17.9823 17.5833 18.0074 17.4388 17.9981C17.2943 17.9889 17.1545 17.9457 17.0319 17.8725L11.6038 14.6423C11.4909 14.5752 11.3957 14.4846 11.3253 14.3773C11.255 14.2701 11.2113 14.1489 11.1977 14.0232C11.1841 13.8975 11.2008 13.7705 11.2467 13.6518C11.2926 13.5332 11.3664 13.426 11.4625 13.3386L15.9686 9.23685C16.0191 9.19165 15.9597 9.11679 15.9002 9.15069L9.36855 12.8626C8.98032 13.0843 8.51929 13.1613 8.07472 13.0787L5.71012 12.6451C4.85649 12.4883 4.73901 11.3753 5.54059 11.0603L18.1845 6.09558C18.3998 6.01047 18.6353 5.98145 18.8664 6.01153C19.0975 6.04161 19.316 6.1297 19.4994 6.26671C19.6827 6.40371 19.8243 6.58468 19.9095 6.79096C19.9946 6.99725 20.0203 7.22137 19.9839 7.44023" fill="white"/>
<path d="M18.3614 17.2977L19.3482 17.4599L19.3482 17.4599L18.3614 17.2977ZM17.0319 17.8725L17.5447 17.014L17.5433 17.0132L17.0319 17.8725ZM11.6038 14.6423L12.1151 13.7829L12.1146 13.7826L11.6038 14.6423ZM11.4625 13.3386L12.1356 14.0781L12.1356 14.0781L11.4625 13.3386ZM15.9686 9.23685L15.3021 8.49126L15.2954 8.49734L15.9686 9.23685ZM15.9002 9.15069L16.3943 10.0201L16.3953 10.0195L15.9002 9.15069ZM9.36855 12.8626L8.87446 11.9932L8.87264 11.9942L9.36855 12.8626ZM8.07472 13.0787L8.25741 12.0955L8.25509 12.0951L8.07472 13.0787ZM5.71012 12.6451L5.52948 13.6286L5.52975 13.6287L5.71012 12.6451ZM5.54059 11.0603L5.17509 10.1295L5.17487 10.1296L5.54059 11.0603ZM18.1845 6.09558L18.5499 7.0264L18.552 7.0256L18.1845 6.09558ZM18.9957 7.27796L17.3747 17.1354L19.3482 17.4599L20.9692 7.60249L18.9957 7.27796ZM17.3747 17.1354C17.3807 17.099 17.3954 17.069 17.4128 17.0473L18.9752 18.2959C19.1676 18.0551 19.2975 17.7681 19.3482 17.4599L17.3747 17.1354ZM17.4128 17.0473C17.4299 17.0259 17.4483 17.0138 17.4629 17.0075L18.2566 18.8432C18.5349 18.7229 18.7829 18.5364 18.9752 18.2959L17.4128 17.0473ZM17.4629 17.0075C17.4774 17.0012 17.4907 16.9994 17.5025 17.0002L17.3751 18.9961C17.676 19.0153 17.9786 18.9635 18.2566 18.8432L17.4629 17.0075ZM17.5025 17.0002C17.5144 17.0009 17.5288 17.0045 17.5447 17.014L16.5191 18.731C16.7801 18.887 17.0743 18.9769 17.3751 18.9961L17.5025 17.0002ZM17.5433 17.0132L12.1151 13.7829L11.0924 15.5016L16.5205 18.7319L17.5433 17.0132ZM12.1146 13.7826C12.1293 13.7913 12.1465 13.806 12.1615 13.8289L10.4892 14.9258C10.6449 15.1632 10.8525 15.3591 11.0929 15.502L12.1146 13.7826ZM12.1615 13.8289C12.1766 13.8519 12.1882 13.8815 12.1919 13.9155L10.2035 14.131C10.2344 14.4164 10.3333 14.6882 10.4892 14.9258L12.1615 13.8289ZM12.1919 13.9155C12.1956 13.9495 12.1908 13.9831 12.1794 14.0125L10.314 13.2911C10.2109 13.5578 10.1726 13.8454 10.2035 14.131L12.1919 13.9155ZM12.1794 14.0125C12.1681 14.0417 12.1517 14.0634 12.1356 14.0781L10.7893 12.5991C10.5811 12.7886 10.4171 13.0246 10.314 13.2911L12.1794 14.0125ZM12.1356 14.0781L16.6417 9.97636L15.2954 8.49734L10.7893 12.5991L12.1356 14.0781ZM16.635 9.98241C16.8343 9.80424 16.9725 9.54482 16.9865 9.24654C16.9997 8.9655 16.8999 8.71992 16.7587 8.54215C16.4696 8.17823 15.909 7.99472 15.4051 8.28186L16.3953 10.0195C15.9509 10.2728 15.4497 10.1097 15.1926 9.78607C15.0674 9.62843 14.9767 9.40792 14.9887 9.15256C15.0015 8.87998 15.1281 8.64687 15.3021 8.4913L16.635 9.98241ZM15.4061 8.28128L8.87446 11.9932L9.86263 13.732L16.3943 10.0201L15.4061 8.28128ZM8.87264 11.9942C8.69247 12.0971 8.47224 12.1354 8.2574 12.0955L7.89203 14.0619C8.56634 14.1872 9.26818 14.0715 9.86446 13.731L8.87264 11.9942ZM8.25509 12.0951L5.8905 11.6615L5.52975 13.6287L7.89434 14.0623L8.25509 12.0951ZM5.89077 11.6615C5.88807 11.661 5.92005 11.6689 5.9531 11.7055C5.98154 11.7371 5.99552 11.7731 5.99904 11.8062C6.00256 11.8393 5.99678 11.8814 5.97206 11.9236C5.9596 11.945 5.94441 11.9625 5.92929 11.9753C5.91406 11.9882 5.90421 11.9919 5.90631 11.991L5.17487 10.1296C3.39356 10.8295 3.73236 13.2986 5.52948 13.6286L5.89077 11.6615ZM5.90608 11.9911L18.5499 7.0264L17.819 5.16477L5.17509 10.1295L5.90608 11.9911ZM18.552 7.0256C18.6087 7.00319 18.6731 6.99482 18.7373 7.00317L18.9954 5.0199C18.5974 4.96809 18.191 5.01774 17.8169 5.16556L18.552 7.0256ZM18.7373 7.00317C18.8015 7.01152 18.8576 7.0355 18.9008 7.06776L20.098 5.46565C19.7744 5.2239 19.3936 5.07171 18.9954 5.0199L18.7373 7.00317ZM18.9008 7.06776C18.9436 7.09977 18.9706 7.13735 18.9852 7.17261L20.8338 6.40932C20.678 6.03202 20.4218 5.70765 20.098 5.46565L18.9008 7.06776ZM18.9852 7.17261C18.9995 7.20741 19.0031 7.24254 18.9975 7.2761L20.9704 7.60436C21.0376 7.20019 20.9897 6.78708 20.8338 6.40932L18.9852 7.17261Z" fill="white" mask="url(#path-2-inside-1_629_3329)"/>
</svg>
