<svg width="25" height="24" viewBox="0 0 25 24" fill="none" xmlns="http://www.w3.org/2000/svg">
<rect width="25" height="24" rx="12" fill="#207989"/>
<path d="M17.4377 17.7406C17.3947 17.819 17.3314 17.8845 17.2544 17.9301C17.1775 17.9757 17.0897 17.9999 17.0002 18H14.0002C13.9161 18 13.8333 17.9787 13.7596 17.9382C13.6858 17.8976 13.6235 17.8392 13.5784 17.7681L11.0477 13.7913L7.37024 17.8363C7.28059 17.9326 7.1566 17.9896 7.02515 17.9951C6.89369 18.0006 6.76537 17.9541 6.668 17.8656C6.57063 17.7771 6.51206 17.6538 6.505 17.5224C6.49793 17.391 6.54293 17.2622 6.63024 17.1637L10.4909 12.9137L6.57837 6.76875C6.53018 6.69315 6.50321 6.60599 6.50027 6.51639C6.49733 6.42679 6.51854 6.33804 6.56167 6.25945C6.6048 6.18086 6.66826 6.11531 6.74542 6.06966C6.82258 6.02402 6.91059 5.99996 7.00024 6H10.0002C10.0844 6.00003 10.1672 6.02129 10.2409 6.06182C10.3147 6.10236 10.377 6.16085 10.4221 6.23188L12.9527 10.2087L16.6302 6.16375C16.7199 6.06745 16.8439 6.01036 16.9753 6.00487C17.1068 5.99938 17.2351 6.04592 17.3325 6.13441C17.4299 6.2229 17.4884 6.3462 17.4955 6.47758C17.5026 6.60896 17.4576 6.73783 17.3702 6.83625L13.5096 11.0831L17.4221 17.2319C17.47 17.3075 17.4968 17.3946 17.4995 17.4841C17.5023 17.5736 17.4809 17.6622 17.4377 17.7406Z" fill="white"/>
</svg>
