<svg width="24" height="24" viewBox="0 0 24 24" fill="none" xmlns="http://www.w3.org/2000/svg">
<rect width="24" height="24" rx="12" fill="#207989"/>
<path d="M19.127 8.79883C19.4316 9.86523 19.4316 12.1504 19.4316 12.1504C19.4316 12.1504 19.4316 14.4102 19.127 15.502C18.9746 16.1113 18.4922 16.5684 17.9082 16.7207C16.8164 17 12.5 17 12.5 17C12.5 17 8.1582 17 7.06641 16.7207C6.48242 16.5684 6 16.1113 5.84766 15.502C5.54297 14.4102 5.54297 12.1504 5.54297 12.1504C5.54297 12.1504 5.54297 9.86523 5.84766 8.79883C6 8.18945 6.48242 7.70703 7.06641 7.55469C8.1582 7.25 12.5 7.25 12.5 7.25C12.5 7.25 16.8164 7.25 17.9082 7.55469C18.4922 7.70703 18.9746 8.18945 19.127 8.79883ZM11.0781 14.207L14.6836 12.1504L11.0781 10.0938V14.207Z" fill="white"/>
</svg>
