<svg width="32" height="32" viewBox="0 0 32 32" fill="none" xmlns="http://www.w3.org/2000/svg">
<path d="M26.33 32H5.67C3.64 32 2 30.36 2 28.33V7.67C2 5.64 3.64 4 5.67 4H19.316L24.967 6.038L28.011 8.208L30 15.63V28.33C30 30.36 28.36 32 26.33 32Z" fill="#533566"/>
<path d="M8.98999 7.5C8.98999 7.63261 8.93731 7.75979 8.84354 7.85355C8.74978 7.94732 8.6226 8 8.48999 8C8.35738 8 8.23021 7.94732 8.13644 7.85355C8.04267 7.75979 7.98999 7.63261 7.98999 7.5C7.98999 7.36739 8.04267 7.24021 8.13644 7.14645C8.23021 7.05268 8.35738 7 8.48999 7C8.6226 7 8.74978 7.05268 8.84354 7.14645C8.93731 7.24021 8.98999 7.36739 8.98999 7.5ZM5.48999 13C5.6226 13 5.74978 12.9473 5.84354 12.8536C5.93731 12.7598 5.98999 12.6326 5.98999 12.5C5.98999 12.3674 5.93731 12.2402 5.84354 12.1464C5.74978 12.0527 5.6226 12 5.48999 12C5.35738 12 5.2302 12.0527 5.13644 12.1464C5.04267 12.2402 4.98999 12.3674 4.98999 12.5C4.98999 12.6326 5.04267 12.7598 5.13644 12.8536C5.2302 12.9473 5.35738 13 5.48999 13ZM24.99 24.5C24.99 24.6326 24.9373 24.7598 24.8435 24.8536C24.7498 24.9473 24.6226 25 24.49 25C24.3574 25 24.2302 24.9473 24.1364 24.8536C24.0427 24.7598 23.99 24.6326 23.99 24.5C23.99 24.3674 24.0427 24.2402 24.1364 24.1464C24.2302 24.0527 24.3574 24 24.49 24C24.6226 24 24.7498 24.0527 24.8435 24.1464C24.9373 24.2402 24.99 24.3674 24.99 24.5ZM23.99 28.5C23.99 28.6326 23.9373 28.7598 23.8435 28.8536C23.7498 28.9473 23.6226 29 23.49 29C23.3574 29 23.2302 28.9473 23.1364 28.8536C23.0427 28.7598 22.99 28.6326 22.99 28.5C22.99 28.3674 23.0427 28.2402 23.1364 28.1464C23.2302 28.0527 23.3574 28 23.49 28C23.6226 28 23.7498 28.0527 23.8435 28.1464C23.9373 28.2402 23.99 28.3674 23.99 28.5ZM4.48999 27C4.6226 27 4.74978 26.9473 4.84354 26.8536C4.93731 26.7598 4.98999 26.6326 4.98999 26.5C4.98999 26.3674 4.93731 26.2402 4.84354 26.1464C4.74978 26.0527 4.6226 26 4.48999 26C4.35738 26 4.2302 26.0527 4.13644 26.1464C4.04267 26.2402 3.98999 26.3674 3.98999 26.5C3.98999 26.6326 4.04267 26.7598 4.13644 26.8536C4.2302 26.9473 4.35738 27 4.48999 27ZM27.99 28.5C27.99 28.6326 27.9373 28.7598 27.8435 28.8536C27.7498 28.9473 27.6226 29 27.49 29C27.3574 29 27.2302 28.9473 27.1364 28.8536C27.0427 28.7598 26.99 28.6326 26.99 28.5C26.99 28.3674 27.0427 28.2402 27.1364 28.1464C27.2302 28.0527 27.3574 28 27.49 28C27.6226 28 27.7498 28.0527 27.8435 28.1464C27.9373 28.2402 27.99 28.3674 27.99 28.5Z" fill="#E1D8EC"/>
<path d="M30 7.67C30 5.64 28.36 4 26.33 4H19.29L9.25 13.6L19.64 26L30 15.64V7.67Z" fill="#A38439"/>
<path d="M11.03 13.8199L13.11 15.6899C13.5 16.0399 14.03 16.1699 14.54 16.0399L17.26 15.3499C18.49 15.0399 19.56 16.2399 19.1 17.4299L18.01 20.2499C17.83 20.7099 17.88 21.2299 18.15 21.6499L19.76 24.1999C20.46 25.2999 19.57 26.7199 18.28 26.5799L15.63 26.2999C15.3674 26.2725 15.102 26.3123 14.8589 26.4155C14.6158 26.5187 14.4028 26.6819 14.24 26.8899L12.6 28.9899C11.8 30.0199 10.17 29.6699 9.86004 28.3999L9.14005 25.4699C9.08114 25.2334 8.96835 25.0138 8.81049 24.8282C8.65262 24.6426 8.45397 24.496 8.23005 24.3999L5.44005 23.2299C4.27005 22.7399 4.14005 21.1299 5.22005 20.4599L7.61005 18.9799C8.05005 18.7099 8.33005 18.2299 8.35005 17.7099L8.45005 14.9199C8.48005 13.5999 10.04 12.9399 11.03 13.8199Z" fill="#FCD53F"/>
</svg>
